# Blender 3.3.1
# www.blender.org
mtllib enemy_spawner.mtl
o enemy_spawner
v -0.334861 1.015782 -0.987619
v 0.312909 1.015782 -0.977239
v -0.049241 2.909507 1.405573
v -0.766688 0.288319 -0.316808
v 0.723021 0.288319 -0.292937
v 0.696274 1.880365 1.376269
v -0.793435 1.880365 1.352398
v -1.365410 1.146828 -0.486570
v -1.373501 0.617234 0.018413
v -1.505079 2.081044 0.490937
v -1.513170 1.551450 0.995920
v 1.433876 2.116263 0.504439
v 1.327055 1.228414 -0.521242
v 1.317716 0.617234 0.061537
v 1.425246 1.551450 1.043005
v -1.440654 2.583385 1.120013
v 1.348149 2.583385 1.164701
v -0.782443 2.599785 0.666409
v -0.755696 1.007739 -1.002797
v 0.707266 2.599785 0.690280
v 0.734013 1.007739 -0.978926
v -0.521132 2.253333 0.307260
v -0.500310 1.013979 -0.992161
v 0.457597 2.253333 0.322943
v 0.478418 1.013979 -0.976478
v -0.353385 1.925942 0.168369
v -0.336401 0.915025 -0.891543
v 0.294385 1.925942 0.178749
v 0.311369 0.915025 -0.881163
v -1.545986 1.125793 -1.137454
v -1.570772 0.023931 -0.055986
v 1.517877 0.012457 -0.018528
v 1.527235 1.110506 -1.067793
v 0.401257 2.277268 0.347141
v -0.465596 2.277268 0.333251
v -0.631908 2.497767 0.561832
v 0.560160 2.497767 0.580933
v -0.031555 2.864028 0.301851
vn 0.6965 0.4896 0.5246
vn -0.0160 -0.0400 0.9991
vn 0.0116 -0.6901 -0.7236
vn 0.0063 0.9201 -0.3917
vn -0.7129 0.4896 0.5020
vn -0.3118 0.6642 -0.6794
vn -0.0111 -0.7237 0.6900
vn -0.9230 0.2729 0.2714
vn -0.9946 -0.0630 -0.0820
vn -0.4128 -0.0801 0.9073
vn -0.3917 -0.2470 0.8863
vn 0.9968 -0.0626 -0.0497
vn -0.4579 0.6172 0.6399
vn 0.2525 0.7022 -0.6657
vn 0.3885 0.7753 -0.4980
vn 0.9944 0.0644 0.0835
vn 0.4358 0.6176 0.6547
vn -0.3959 0.7369 -0.5479
vn 0.3845 -0.0797 0.9197
vn -0.9967 0.0639 0.0510
vn 0.0111 0.7237 -0.6900
vn 0.0111 0.7237 -0.6901
vn -0.5486 0.3656 -0.7519
vn 0.0147 0.3969 -0.9178
vn 0.0111 0.7236 -0.6901
vn -0.0116 0.6901 0.7236
vn 0.0098 -0.6909 -0.7229
vn 0.9242 0.2560 0.2833
vn 0.3691 -0.2355 0.8991
vn -0.1528 0.9530 -0.2616
vn 0.1600 0.9842 -0.0762
vn 0.0202 -0.6901 -0.7234
vn 0.0160 -0.0652 -0.9977
vn -0.0129 0.5928 0.8053
vn 0.5725 0.3656 -0.7339
vn -0.0111 -0.7237 0.6901
vn -0.3896 0.6633 -0.6389
vn -0.9311 0.2660 0.2497
vn 0.9968 -0.0626 -0.0496
vn 0.3046 0.7042 -0.6413
vn -0.9999 -0.0000 -0.0160
vn 0.9999 -0.0000 0.0160
vn 0.0114 0.7857 -0.6185
vn 0.0084 0.7857 -0.6185
vn -0.6352 0.5538 -0.5384
vn 0.6521 0.5538 -0.5177
vn 0.0083 -0.6901 -0.7236
vn 0.9201 0.2665 0.2871
vn -0.0012 -0.7005 -0.7137
vn -0.0111 -0.7236 0.6901
vt 0.038813 0.530041
vt 0.949925 0.306168
vt 0.772157 0.919792
vt 0.173169 0.657862
vt 0.772157 0.845380
vt 0.113211 0.529953
vt 0.949925 0.231770
vt 0.173169 0.583451
vt 0.354019 0.854124
vt 0.507815 0.626930
vt 0.354019 0.621162
vt 0.313182 0.753903
vt 0.354019 0.324382
vt 0.437333 0.019807
vt 0.054483 0.895007
vt 0.019807 0.019807
vt 0.507815 0.368501
vt 0.190934 0.019807
vt 0.976948 0.541337
vt 0.354019 0.495509
vt 0.560050 0.284768
vt 0.599664 0.150134
vt 0.418192 0.745834
vt 0.592893 0.712465
vt 0.706994 0.847472
vt 0.899754 0.019807
vt 0.190934 0.284768
vt 0.560050 0.019807
vt 0.592893 0.541337
vt 0.313182 0.627892
vt 0.897335 0.855084
vt 0.587172 0.859561
vt 0.019807 0.284768
vt 0.437333 0.284768
vt 0.354020 0.978330
vt 0.244786 0.227779
vt 0.730851 0.070174
vt 0.716561 0.693740
vt 0.732007 0.154220
vt 0.632507 0.693697
vt 0.077454 0.980094
vt 0.368261 0.074547
vt 0.230548 0.072628
vt 0.874901 0.239470
vt 0.310566 0.886218
vt 0.716561 0.541381
vt 0.897335 0.755396
vt 0.226828 0.878936
vt 0.632507 0.541337
vt 0.354020 0.230027
vt 0.709710 0.980193
vt 0.108492 0.762029
vt 0.027166 0.569998
vt 0.230548 0.535300
vt 0.019807 0.722416
vt 0.825131 0.682005
vt 0.975267 0.453230
vt 0.244564 0.379649
vt 0.922118 0.610215
vt 0.116810 0.722393
vt 0.491101 0.230027
vt 0.825168 0.585002
vt 0.476946 0.074547
vt 0.019807 0.775103
vt 0.899754 0.119320
vt 0.116810 0.569976
vt 0.825131 0.813076
vt 0.587172 0.752078
vt 0.910311 0.325174
vt 0.310566 0.793517
vt 0.632507 0.770234
vt 0.709710 0.887085
vt 0.108492 0.855394
vt 0.827657 0.061496
vt 0.440876 0.706220
vt 0.226828 0.702596
vt 0.507815 0.777553
vt 0.825131 0.325174
vt 0.785518 0.805767
vt 0.188775 0.324381
vt 0.314406 0.019807
vt 0.463397 0.958300
vt 0.171830 0.745834
vt 0.383657 0.893737
vt 0.508370 0.482682
vt 0.468201 0.324381
vt 0.314406 0.284236
vt 0.785518 0.541337
vt 0.454399 0.854124
vt 0.440876 0.535123
vt 0.706994 0.733354
vt 0.632507 0.919573
vt 0.936948 0.820021
vt 0.313182 0.588279
vt 0.785518 0.237295
vt 0.188775 0.495479
vt 0.313182 0.323849
vt 0.975267 0.364788
vt 0.468201 0.495508
vt 0.785518 0.501724
vt 0.171830 0.916932
vt 0.600224 0.035953
vt 0.171830 0.535093
vt 0.756174 0.748258
vt 0.019807 0.324514
vt 0.939367 0.019807
vt 0.463397 0.893737
vt 0.950224 0.325174
vt 0.756174 0.542408
vt 0.172867 0.775179
vt 0.019807 0.530363
vt 0.172869 0.676871
vt 0.756174 0.294873
vt 0.132217 0.324381
vt 0.939367 0.132217
vt 0.936948 0.755397
vt 0.756174 0.500722
vt 0.172867 0.887589
vt 0.132217 0.530231
vt 0.950224 0.212764
vt 0.172869 0.564442
vt 0.038515 0.361121
vt 0.639082 0.324469
vt 0.639082 0.492376
vt 0.038515 0.529028
vt 0.756174 0.919791
vt 0.112914 0.361033
vt 0.713481 0.324381
vt 0.112914 0.528941
vt 0.713481 0.492289
vt 0.756174 0.845380
vt 0.416251 0.978330
vt 0.788044 0.019807
vt 0.599469 0.501724
vt 0.019807 0.980094
vt 0.788044 0.197159
vt 0.599469 0.324381
vt 0.976948 0.633127
vt 0.691238 0.194253
vt 0.882504 0.541337
vt 0.916750 0.434783
vt 0.691238 0.019807
vt 0.882504 0.715783
vt 0.943343 0.125797
vt 0.827803 0.894697
vt 0.936437 0.956308
vt 0.944474 0.756014
vt 0.548906 0.962561
vt 0.455864 0.894365
vt 0.896824 0.966474
vt 0.943343 0.026236
vt 0.507815 0.962561
vt 0.877136 0.364788
vt 0.455864 0.935456
vt 0.171830 0.341454
vt 0.877136 0.501724
vt 0.977568 0.956308
vt 0.171830 0.478367
vt 0.944474 0.797145
vt 0.536326 0.899175
vt 0.825131 0.966474
vt 0.825131 0.433258
vt 0.949818 0.894698
s 0
usemtl enemy_spawner_material
f 20/89/1 3/9/1 6/23/1
f 6/24/2 3/10/2 7/29/2
f 19/86/3 5/20/3 4/13/3
f 18/75/4 3/11/4 20/90/4
f 7/30/5 3/12/5 18/76/5
f 18/81/6 8/36/6 10/43/6
f 6/27/7 4/16/7 5/18/7
f 8/37/8 31/136/8 9/39/8
f 11/49/9 8/38/9 9/40/9
f 7/34/7 9/42/7 4/14/7
f 11/47/10 7/31/10 16/67/10
f 14/59/11 5/19/11 32/138/11
f 12/53/12 14/60/12 13/55/12
f 20/91/13 6/25/13 17/71/13
f 20/94/14 13/58/14 21/97/14
f 6/28/7 14/61/7 15/63/7
f 12/51/15 20/92/15 17/72/15
f 15/64/16 12/52/16 17/73/16
f 7/32/17 18/77/17 16/68/17
f 18/78/18 10/44/18 16/69/18
f 6/26/19 15/65/19 17/74/19
f 10/45/20 11/48/20 16/70/20
f 22/104/21 19/88/21 18/79/21
f 24/113/21 21/100/21 25/117/21
f 23/110/22 21/101/22 19/83/22
f 35/148/23 36/152/23 38/160/23
f 26/122/24 22/105/24 24/114/24
f 1/2/25 25/120/25 23/108/25
f 26/123/21 29/130/21 27/124/21
f 1/3/26 29/131/26 2/5/26
f 5/22/27 33/142/27 32/139/27
f 14/62/28 33/143/28 13/56/28
f 4/15/29 9/41/29 31/135/29
f 21/98/30 13/57/30 33/141/30
f 8/35/31 19/84/31 30/132/31
f 4/17/32 30/134/32 19/85/32
f 24/115/21 35/151/21 34/144/21
f 22/107/21 36/154/21 35/149/21
f 20/96/21 36/155/21 18/80/21
f 24/116/21 37/159/21 20/93/21
f 34/145/33 35/150/33 38/161/33
f 36/153/34 37/156/34 38/162/34
f 37/157/35 34/146/35 38/163/35
f 21/103/36 2/8/36 23/112/36
f 19/86/3 21/99/3 5/20/3
f 18/81/37 19/87/37 8/36/37
f 6/27/7 7/33/7 4/16/7
f 8/37/38 30/133/38 31/136/38
f 11/49/9 10/46/9 8/38/9
f 7/34/7 11/50/7 9/42/7
f 12/53/39 15/66/39 14/60/39
f 20/94/40 12/54/40 13/58/40
f 6/28/7 5/21/7 14/61/7
f 22/104/21 23/109/21 19/88/21
f 24/113/21 20/95/21 21/100/21
f 23/110/22 25/118/22 21/101/22
f 2/6/41 29/129/41 28/127/41
f 26/122/42 27/125/42 1/1/42
f 25/119/43 2/6/43 28/127/43
f 26/122/44 1/1/44 23/111/44
f 24/114/45 25/119/45 28/127/45
f 26/122/46 23/111/46 22/105/46
f 24/114/24 28/127/24 26/122/24
f 1/2/21 2/7/21 25/120/21
f 26/123/21 28/128/21 29/130/21
f 1/3/26 27/126/26 29/131/26
f 5/22/47 21/102/47 33/142/47
f 14/62/48 32/140/48 33/143/48
f 4/17/49 31/137/49 30/134/49
f 24/115/21 22/106/21 35/151/21
f 22/107/21 18/82/21 36/154/21
f 20/96/21 37/158/21 36/155/21
f 24/116/21 34/147/21 37/159/21
f 21/103/7 25/121/7 2/8/7
f 2/8/50 1/4/50 23/112/50
