# Blender 3.1.2
# www.blender.org
mtllib floor.mtl
o Plane
v 9.905276 0.000000 -9.905276
v -9.905276 0.000000 -9.905276
v 9.905276 0.000000 9.905276
v -9.905276 0.000000 9.905276
v 0.000000 0.000000 -9.905276
v 0.000000 0.000000 9.905276
v -0.495264 0.000000 -9.905276
v -0.495264 0.000000 9.905276
v 0.495264 0.000000 9.905276
v 0.495264 0.000000 -9.905276
v 9.905276 0.000000 0.000000
v -9.905276 0.000000 0.000000
v 0.000000 0.000000 0.000000
v -0.495264 0.000000 0.000000
v 0.495264 0.000000 0.000000
v 9.905276 0.000000 -0.495264
v -9.905276 0.000000 -0.495264
v 0.000000 0.000000 -0.495264
v -0.495264 0.000000 -0.495264
v 0.495264 0.000000 -0.495264
v -9.905276 0.000000 0.495264
v 0.000000 0.000000 0.495264
v -0.495264 0.000000 0.495264
v 0.495264 0.000000 0.495264
v 9.905276 0.000000 0.495264
vn -0.0000 1.0000 -0.0000
vt 0.996032 0.003968
vt 0.996032 0.996032
vt 0.003969 0.003968
vt 0.003968 0.996031
vt 0.996032 0.500000
vt 0.003969 0.500000
vt 0.996032 0.524801
vt 0.003968 0.524801
vt 0.003969 0.475198
vt 0.996032 0.475198
vt 0.500000 0.003968
vt 0.500000 0.996032
vt 0.500000 0.500000
vt 0.500000 0.524801
vt 0.500000 0.475198
vt 0.524802 0.003968
vt 0.524802 0.996032
vt 0.524802 0.500000
vt 0.524802 0.524801
vt 0.524802 0.475198
vt 0.475198 0.996032
vt 0.475198 0.500000
vt 0.475198 0.524801
vt 0.475198 0.475198
vt 0.475198 0.003968
s 0
usemtl Material
f 21/21/1 8/8/1 23/23/1
f 22/22/1 9/9/1 24/24/1
f 23/23/1 6/6/1 22/22/1
f 24/24/1 3/3/1 25/25/1
f 20/20/1 11/11/1 16/16/1
f 19/19/1 13/13/1 18/18/1
f 18/18/1 15/15/1 20/20/1
f 17/17/1 14/14/1 19/19/1
f 2/2/1 19/19/1 7/7/1
f 5/5/1 20/20/1 10/10/1
f 7/7/1 18/18/1 5/5/1
f 10/10/1 16/16/1 1/1/1
f 15/15/1 25/25/1 11/11/1
f 14/14/1 22/22/1 13/13/1
f 13/13/1 24/24/1 15/15/1
f 12/12/1 23/23/1 14/14/1
f 21/21/1 4/4/1 8/8/1
f 22/22/1 6/6/1 9/9/1
f 23/23/1 8/8/1 6/6/1
f 24/24/1 9/9/1 3/3/1
f 20/20/1 15/15/1 11/11/1
f 19/19/1 14/14/1 13/13/1
f 18/18/1 13/13/1 15/15/1
f 17/17/1 12/12/1 14/14/1
f 2/2/1 17/17/1 19/19/1
f 5/5/1 18/18/1 20/20/1
f 7/7/1 19/19/1 18/18/1
f 10/10/1 20/20/1 16/16/1
f 15/15/1 24/24/1 25/25/1
f 14/14/1 23/23/1 22/22/1
f 13/13/1 22/22/1 24/24/1
f 12/12/1 21/21/1 23/23/1
