# Blender 3.1.2
# www.blender.org
mtllib enemy.mtl
o Cube
v -0.381339 1.255566 0.317528
v 0.034996 0.050072 0.357299
v -0.387678 1.248434 -0.324153
v -0.053096 0.067116 -0.392218
v 0.360741 1.267482 0.360741
v 0.099964 0.050072 0.357299
v 0.367940 1.259382 -0.367940
v 0.011238 0.067116 -0.392218
v -0.432702 0.954385 0.436647
v 0.395455 0.924155 -0.508200
v -0.432702 0.954385 -0.436647
v 0.395455 0.924155 0.508200
v 0.457883 0.116439 0.000000
v -0.392549 1.421034 -0.000143
v 0.373471 1.455384 0.000000
v -0.457883 0.116439 0.000000
v -0.674776 0.881513 0.000000
v 0.828146 0.861353 0.000000
v -0.419447 0.573773 0.409017
v -0.419447 0.573773 -0.409017
v 0.167569 0.133296 0.424904
v 0.078609 0.150052 -0.459589
v 0.645428 0.486878 0.000000
v -0.503504 0.548020 0.000000
v -0.995669 0.978039 -0.000143
v -0.395455 0.924155 -0.508200
v -0.395455 0.924155 0.508200
v -0.032609 0.133296 0.424904
v -0.120467 0.150052 -0.459589
v -0.620111 0.395852 0.000000
v 0.000000 0.000000 1.000000
v 0.195090 0.000000 0.980785
v 0.382683 0.000000 0.923880
v 0.555570 0.000000 0.831470
v 0.707107 0.000000 0.707107
v 0.831470 0.000000 0.555570
v 0.923880 0.000000 0.382683
v 0.980785 0.000000 0.195090
v 1.000000 0.000000 -0.000000
v 0.980785 0.000000 -0.195090
v 0.923880 0.000000 -0.382683
v 0.831470 0.000000 -0.555570
v 0.707107 0.000000 -0.707107
v 0.555570 0.000000 -0.831470
v 0.382683 0.000000 -0.923880
v 0.195090 0.000000 -0.980785
v -0.000000 0.000000 -1.000000
v -0.195090 0.000000 -0.980785
v -0.382683 0.000000 -0.923880
v -0.555570 0.000000 -0.831470
v -0.707107 0.000000 -0.707107
v -0.831469 0.000000 -0.555570
v -0.923880 0.000000 -0.382684
v -0.980785 0.000000 -0.195090
v -1.000000 0.000000 0.000000
v -0.980785 0.000000 0.195090
v -0.923879 0.000000 0.382684
v -0.831470 0.000000 0.555570
v -0.707107 0.000000 0.707107
v -0.555570 0.000000 0.831470
v -0.382683 0.000000 0.923880
v -0.195090 0.000000 0.980785
v 0.000000 0.000000 1.000000
v 0.195090 0.000000 0.980785
v 0.382683 0.000000 0.923880
v 0.555570 0.000000 0.831470
v 0.707107 0.000000 0.707107
v 0.831470 0.000000 0.555570
v 0.923880 0.000000 0.382683
v 0.980785 0.000000 0.195090
v 1.000000 0.000000 -0.000000
v 0.980785 0.000000 -0.195090
v 0.923880 0.000000 -0.382683
v 0.831470 0.000000 -0.555570
v 0.707107 0.000000 -0.707107
v 0.555570 0.000000 -0.831470
v 0.382683 0.000000 -0.923880
v 0.195090 0.000000 -0.980785
v -0.000000 0.000000 -1.000000
v -0.195090 0.000000 -0.980785
v -0.382683 0.000000 -0.923880
v -0.555570 0.000000 -0.831470
v -0.707107 0.000000 -0.707107
v -0.831469 0.000000 -0.555570
v -0.923880 0.000000 -0.382684
v -0.980785 0.000000 -0.195090
v -1.000000 0.000000 0.000000
v -0.980785 0.000000 0.195090
v -0.923879 0.000000 0.382684
v -0.831470 0.000000 0.555570
v -0.707107 0.000000 0.707107
v -0.555570 0.000000 0.831470
v -0.382683 0.000000 0.923880
v -0.195090 0.000000 0.980785
v -0.157487 0.116439 0.157487
v 0.157487 0.116439 0.157487
v -0.390984 0.552792 0.513072
v -0.390984 0.552792 -0.513072
v -0.157487 0.116439 -0.157487
v 0.390984 0.552792 0.513072
v 0.157487 0.116439 -0.157487
v 0.390984 0.552792 -0.513072
v -0.123747 0.056787 0.196049
v 0.123747 0.056787 0.196049
v -0.389937 0.384474 0.462238
v 0.389937 0.384474 0.462238
v -0.389937 0.384474 -0.462238
v -0.123747 0.056787 -0.196049
v 0.123747 0.056787 -0.196049
v 0.389937 0.384474 -0.462238
v 0.554892 0.514532 -0.425886
v 0.577066 0.937014 -0.459792
v 0.577066 0.937014 0.459792
v -0.521172 1.051506 0.457360
v -0.521172 1.051506 -0.457646
v -0.500800 0.431944 0.500800
v -0.500800 0.431944 -0.500800
v 0.554892 0.514532 0.425886
v -0.000000 0.729246 0.803939
v 0.000000 0.724179 -0.792168
v 0.500800 0.431944 -0.500800
v 0.519532 1.035754 -0.519532
v 0.853661 0.952327 0.000000
v 0.519532 1.035754 0.519532
v 0.500800 0.431944 0.500800
v 0.620111 0.395852 0.000000
v 1.203460 0.831845 -0.003477
v 1.070343 0.594420 -0.003477
v 1.019028 0.610419 -0.299257
v 1.002358 0.803253 -0.303117
v 1.002358 0.803253 0.296163
v 1.019028 0.610419 0.292303
v 0.970365 0.535994 -0.366773
v 0.989280 0.896387 -0.395696
v 1.180526 0.749877 -0.003477
v 0.989280 0.896387 0.388743
v 0.970365 0.535994 0.359819
v 1.047595 0.512405 -0.003477
v 1.072971 0.807101 -0.030548
v 0.943805 0.624862 -0.030548
v 0.883650 0.643617 -0.377286
v 0.864107 0.869674 -0.381811
v 0.864107 0.869674 0.320714
v 0.883650 0.643617 0.316189
v 1.016348 0.799592 -0.030548
v 0.887182 0.640327 -0.030548
v 0.827026 0.659082 -0.377286
v 0.807484 0.862165 -0.381811
v 0.807484 0.862165 0.320714
v 0.827026 0.659082 0.316189
v 0.839243 0.847962 -0.030548
v 0.710077 0.688697 -0.030548
v 0.649921 0.707452 -0.377286
v 0.630379 0.910535 -0.381811
v 0.630379 0.910535 0.320714
v 0.649921 0.707452 0.316189
vn -0.0394 0.8817 -0.4703
vn -0.0418 0.5411 -0.8399
vn 0.6818 0.6508 0.3340
vn -0.0000 -1.0000 -0.0000
vn -0.5327 0.7253 -0.4361
vn -0.0418 0.5451 0.8373
vn -0.0000 -0.8550 0.5187
vn -0.8703 -0.4469 -0.2070
vn 0.1608 -0.0873 0.9831
vn -0.0000 -0.8522 -0.5233
vn 0.0638 -0.9949 0.0782
vn -0.8703 -0.4469 0.2070
vn -0.5327 0.7253 0.4361
vn 0.6680 0.6710 -0.3219
vn -0.0398 0.8856 0.4627
vn -0.0151 0.9998 -0.0113
vn -0.4483 -0.2603 0.8551
vn 0.4483 -0.2603 -0.8551
vn 0.4483 -0.2603 0.8551
vn -0.4483 -0.2603 -0.8551
vn -0.0000 -0.6305 0.7762
vn -0.6108 -0.6532 -0.4476
vn -0.2626 -0.8723 0.4124
vn -0.1582 0.0660 -0.9852
vn -0.6877 -0.0729 0.7223
vn -0.8114 0.5642 0.1526
vn -0.7876 0.6036 -0.1239
vn -0.0000 -0.5429 -0.8398
vn -0.8208 -0.5540 -0.1388
vn -0.1318 -0.7920 -0.5961
vn 0.1318 -0.7920 0.5961
vn -0.0000 -0.5429 0.8398
vn 0.8208 -0.5540 0.1388
vn -0.0000 -0.6305 -0.7762
vn -0.0000 -0.9991 -0.0416
vn -0.4835 -0.7540 0.4446
vn 0.7402 -0.6674 0.0814
vn -0.0000 -0.1470 0.9891
vn -0.6313 -0.7286 -0.2657
vn -0.0000 -0.9986 -0.0526
vn 0.5592 -0.7468 -0.3601
vn -0.0000 -0.0113 -0.9999
vn 0.0748 -0.0332 -0.9966
vn -0.0515 0.3260 0.9440
vn -0.0000 -0.1010 -0.9949
vn -0.1236 0.0115 0.9923
vn -0.3239 0.0551 -0.9445
vn -0.1037 0.0143 0.9945
vn -0.0000 -0.1010 0.9949
vn 0.5978 0.0033 0.8016
vn -0.5821 0.0037 -0.8131
vn -0.0000 0.8176 -0.5758
vn 0.5821 0.0037 -0.8131
vn -0.5978 0.0033 0.8016
vn -0.0000 0.8350 0.5503
vn 0.6824 -0.0438 -0.7296
vn 0.8402 0.1801 0.5114
vn 0.8364 -0.2346 -0.4953
vn 0.8504 -0.0863 0.5189
vn 0.8975 -0.3697 -0.2405
vn 0.9405 -0.2616 0.2169
vn 0.2362 0.9716 -0.0116
vn -0.5040 -0.0263 0.8633
vn 0.0767 0.9897 -0.1210
vn 0.0625 -0.9950 -0.0779
vn 0.0789 0.9897 0.1198
vn 0.1447 -0.0867 -0.9857
vn 0.9762 -0.0678 -0.2061
vn 0.7851 -0.3777 0.4909
vn 0.8182 -0.2289 -0.5273
vn 0.7803 0.0550 0.6230
vn 0.8953 -0.3898 -0.2156
vn 0.9481 -0.2630 0.1787
vn -0.0029 0.0220 -0.9998
vn 0.2635 0.9646 -0.0065
vn -0.1726 0.0048 -0.9850
vn -0.4459 -0.8887 -0.1068
vn 0.2314 0.9728 0.0125
vn -0.4923 -0.8592 0.1397
vn -0.2634 -0.9646 -0.0152
vn 0.2635 0.9646 0.0065
vn 0.1274 -0.9606 0.2469
vn 0.1274 -0.9606 -0.2469
vn 0.0056 0.0205 0.9998
vn 0.7658 -0.6211 0.1665
vn 0.7658 -0.6211 -0.1665
vn 0.0062 0.0229 0.9997
vn 0.0062 0.0229 -0.9997
vn -0.2634 -0.9646 0.0152
vn -0.0400 0.8821 -0.4693
vn -0.0553 0.5857 -0.8086
vn 0.6215 0.6856 0.3791
vn -0.6316 0.6803 -0.3719
vn -0.0564 0.5904 0.8052
vn -0.8680 -0.0660 -0.4922
vn -0.8680 -0.0660 0.4922
vn -0.6215 0.6856 0.3791
vn 0.6765 0.6457 -0.3541
vn -0.0411 0.8867 0.4604
vn -0.0154 0.9998 -0.0110
vn -0.5542 -0.8103 0.1904
vn 0.5542 -0.8103 -0.1904
vn 0.5542 -0.8103 0.1904
vn -0.5542 -0.8103 -0.1904
vn -0.2623 -0.8726 -0.4121
vn -0.6114 -0.6524 0.4478
vn -0.6874 -0.0733 -0.7225
vn -0.1614 0.0659 0.9847
vn -0.7876 0.6036 0.1239
vn -0.8114 0.5642 -0.1526
vn -0.1318 -0.7920 0.5961
vn -0.8208 -0.5540 0.1388
vn 0.8208 -0.5540 -0.1388
vn 0.1318 -0.7920 -0.5961
vn -0.1037 0.0143 -0.9945
vn -0.0513 0.3243 -0.9445
vn -0.3255 0.0555 0.9439
vn -0.1236 0.0115 -0.9923
vn 0.0748 -0.0332 0.9966
vn 0.8504 -0.0863 -0.5189
vn 0.8364 -0.2346 0.4953
vn 0.8402 0.1801 -0.5114
vn 0.6824 -0.0438 0.7296
vn 0.9405 -0.2616 -0.2169
vn 0.8975 -0.3697 0.2405
vn 0.7803 0.0550 -0.6230
vn 0.8182 -0.2289 0.5273
vn 0.7851 -0.3777 -0.4909
vn 0.9762 -0.0678 0.2061
vn 0.9481 -0.2630 -0.1787
vn 0.8953 -0.3898 0.2156
vn 0.0056 0.0205 -0.9998
vn -0.0029 0.0220 0.9998
vn 0.8629 0.0719 0.5003
vn 0.8629 0.0719 -0.5003
vt 0.266103 0.039173
vt 0.291551 0.424293
vt 0.027128 0.275787
vt 0.120915 0.022732
vt 0.158102 0.928506
vt 0.774965 0.358069
vt 0.879977 0.494244
vt 0.174163 0.025236
vt 0.340543 0.152900
vt 0.050973 0.325845
vt 0.028428 0.020925
vt 0.379445 0.896542
vt 0.602819 0.820810
vt 0.201525 0.928540
vt 0.285643 0.290093
vt 0.262769 0.146281
vt 0.020925 0.170215
vt 0.125975 0.128366
vt 0.879977 0.503277
vt 0.158102 0.937848
vt 0.816814 0.367210
vt 0.020925 0.128366
vt 0.167824 0.132752
vt 0.337329 0.043866
vt 0.167831 0.178030
vt 0.830157 0.559339
vt 0.201525 0.937809
vt 0.379445 0.887598
vt 0.810247 0.742047
vt 0.768036 0.668884
vt 0.167170 0.565493
vt 0.380816 0.606475
vt 0.509198 0.316220
vt 0.739430 0.226885
vt 0.262769 0.742962
vt 0.697270 0.120808
vt 0.766873 0.619783
vt 0.322679 0.740599
vt 0.670134 0.789823
vt 0.145963 0.761432
vt 0.188539 0.295544
vt 0.576287 0.375778
vt 0.692826 0.550216
vt 0.513635 0.514146
vt 0.037005 0.460788
vt 0.043616 0.701449
vt 0.220920 0.020925
vt 0.072873 0.280904
vt 0.020925 0.361927
vt 0.262769 0.388371
vt 0.220920 0.129433
vt 0.337596 0.292165
vt 0.220920 0.174601
vt 0.072873 0.172395
vt 0.415583 0.426223
vt 0.182192 0.458003
vt 0.692826 0.677534
vt 0.043616 0.574131
vt 0.766873 0.550216
vt 0.768036 0.739487
vt 0.676008 0.054569
vt 0.145963 0.632835
vt 0.322022 0.913817
vt 0.812236 0.021656
vt 0.426357 0.240106
vt 0.457367 0.097020
vt 0.750911 0.666720
vt 0.809885 0.687418
vt 0.869368 0.083961
vt 0.751151 0.624870
vt 0.322022 0.795442
vt 0.203311 0.814339
vt 0.145963 0.948240
vt 0.816814 0.384151
vt 0.262769 0.501590
vt 0.830157 0.577498
vt 0.551047 0.270989
vt 0.213964 0.947797
vt 0.146164 0.877458
vt 0.634159 0.083799
vt 0.670361 0.848349
vt 0.628285 0.562199
vt 0.734675 0.567489
vt 0.734675 0.724583
vt 0.201525 0.874363
vt 0.867582 0.023916
vt 0.075148 0.416108
vt 0.316817 0.334014
vt 0.181051 0.666013
vt 0.710649 0.020925
vt 0.427711 0.666031
vt 0.509198 0.203437
vt 0.379445 0.492526
vt 0.781279 0.241801
vt 0.628191 0.726393
vt 0.188539 0.408327
vt 0.574669 0.489498
vt 0.752498 0.039880
vt 0.145963 0.919455
vt 0.774965 0.374138
vt 0.262769 0.530375
vt 0.602819 0.805125
vt 0.551047 0.242305
vt 0.213964 0.919114
vt 0.448276 0.432094
vt 0.214473 0.450176
vt 0.880661 0.020925
vt 0.214623 0.877265
vt 0.020925 0.616080
vt 0.379445 0.395100
vt 0.942822 0.310993
vt 0.892452 0.173606
vt 0.020925 0.659871
vt 0.020925 0.494239
vt 0.942822 0.265610
vt 0.877598 0.870881
vt 0.532820 0.358069
vt 0.753826 0.093386
vt 0.574669 0.726393
vt 0.651944 0.486200
vt 0.538666 0.129641
vt 0.626664 0.299954
vt 0.379445 0.688950
vt 0.782493 0.188383
vt 0.670134 0.635956
vt 0.145963 0.488517
vt 0.914842 0.743658
vt 0.886278 0.963916
vt 0.532820 0.466786
vt 0.651944 0.373755
vt 0.199482 0.761432
vt 0.671312 0.736317
vt 0.670134 0.592165
vt 0.532820 0.508635
vt 0.886278 0.918623
vt 0.840824 0.176584
vt 0.538666 0.020925
vt 0.686001 0.226885
vt 0.263854 0.796380
vt 0.626664 0.187285
vt 0.900973 0.171490
vt 0.951696 0.306290
vt 0.903181 0.471729
vt 0.742763 0.360966
vt 0.951696 0.270630
vt 0.887268 0.876774
vt 0.903181 0.506138
vt 0.838128 0.358069
vt 0.085465 0.702600
vt 0.299053 0.581419
vt 0.900973 0.234758
vt 0.742763 0.424234
vt 0.838128 0.424773
vt 0.887268 0.810071
vt 0.085465 0.590455
vt 0.299053 0.469274
vt 0.574669 0.768243
vt 0.923637 0.683775
vt 0.700914 0.486571
vt 0.584814 0.203437
vt 0.877598 0.959445
vt 0.923637 0.745750
vt 0.574669 0.830218
vt 0.407664 0.905741
vt 0.850602 0.171490
vt 0.877598 0.923856
vt 0.407664 0.871331
vt 0.808722 0.550216
vt 0.700914 0.374204
vt 0.584814 0.315804
vt 0.850602 0.243238
vt 0.808722 0.621965
vt 0.322139 0.623268
vt 0.865899 0.678273
vt 0.670134 0.903441
vt 0.628285 0.625051
vt 0.457367 0.020925
vt 0.864506 0.739417
vt 0.324976 0.860745
vt 0.322139 0.684427
vt 0.532820 0.632987
vt 0.814837 0.095912
vt 0.087906 0.771444
vt 0.426357 0.316220
vt 0.592650 0.508367
vt 0.295480 0.020925
vt 0.316817 0.427425
vt 0.181051 0.574102
vt 0.822656 0.756282
vt 0.770387 0.020925
vt 0.798975 0.260423
vt 0.368124 0.171164
vt 0.075148 0.322753
vt 0.710649 0.111618
vt 0.335218 0.726276
vt 0.397181 0.473943
vt 0.880661 0.094938
vt 0.448276 0.358069
vt 0.822656 0.666720
vt 0.894647 0.251735
vt 0.092390 0.718159
vt 0.770387 0.110201
vt 0.634499 0.502098
vt 0.335218 0.815708
vt 0.917653 0.666720
vt 0.214473 0.523643
vt 0.214623 0.803281
vt 0.693793 0.502384
vt 0.798975 0.171490
vt 0.644152 0.315804
vt 0.634159 0.020925
vt 0.085465 0.829656
vt 0.532820 0.694054
vt 0.145963 0.814714
vt 0.490125 0.406052
vt 0.173965 0.707862
vt 0.599895 0.666900
vt 0.145963 0.347809
vt 0.499216 0.082137
vt 0.427711 0.730138
vt 0.468206 0.264038
vt 0.712191 0.171490
vt 0.280173 0.813381
vt 0.683843 0.913512
vt 0.532820 0.591138
vt 0.850444 0.258525
vt 0.693793 0.358069
vt 0.644152 0.171490
vt 0.872993 0.666720
vt 0.368124 0.020925
vt 0.145963 0.204401
vt 0.872993 0.753824
vt 0.280173 0.726276
vt 0.397181 0.624182
vt 0.335344 0.857557
vt 0.337596 0.213071
vt 0.220920 0.253695
vt 0.825733 0.020925
vt 0.335344 0.916102
vt 0.295480 0.171222
vt 0.825733 0.106957
vt 0.262769 0.262592
vt 0.592650 0.358069
vt 0.687549 0.806500
vt 0.098391 0.760008
vt 0.882935 0.798131
vt 0.083165 0.532282
vt 0.092390 0.574131
vt 0.687549 0.719383
vt 0.634499 0.358069
vt 0.098391 0.841972
vt 0.159676 0.803281
vt 0.483858 0.549531
vt 0.083165 0.457957
vt 0.683843 0.849259
vt 0.159676 0.877606
vt 0.379445 0.213071
vt 0.409973 0.123201
vt 0.275189 0.855230
vt 0.941541 0.948961
vt 0.574885 0.925416
vt 0.474010 0.909218
vt 0.020925 0.859202
vt 0.930649 0.550216
vt 0.754448 0.878620
vt 0.937024 0.370867
vt 0.930410 0.588955
vt 0.474010 0.865902
vt 0.754448 0.906515
vt 0.934384 0.395568
vt 0.929118 0.913516
vt 0.879977 0.408872
vt 0.262769 0.904506
vt 0.085465 0.897928
vt 0.809885 0.923239
vt 0.872006 0.564791
vt 0.085785 0.922925
vt 0.020925 0.902524
vt 0.574669 0.882328
vt 0.809885 0.895397
vt 0.942796 0.597984
vt 0.574669 0.603831
vt 0.262769 0.629081
vt 0.945458 0.358069
vt 0.945458 0.406954
vt 0.409973 0.058289
vt 0.262769 0.681252
vt 0.941541 0.903618
vt 0.929445 0.947570
vt 0.872006 0.615625
vt 0.263016 0.855461
vt 0.879977 0.358069
vt 0.474010 0.635659
vt 0.275189 0.918613
vt 0.379445 0.277999
vt 0.097885 0.883821
vt 0.474010 0.687751
vt 0.580515 0.042024
vt 0.097885 0.933522
vt 0.587055 0.872067
vt 0.574669 0.550216
vt 0.580515 0.095658
vt 0.942796 0.550988
vt 0.587055 0.925590
vt 0.922510 0.084436
vt 0.888561 0.609808
vt 0.892535 0.370325
vt 0.929118 0.798131
vt 0.945030 0.506138
vt 0.040006 0.858667
vt 0.942822 0.171490
vt 0.491713 0.902078
vt 0.973691 0.666720
vt 0.734675 0.885010
vt 0.491713 0.851299
vt 0.945030 0.455358
vt 0.892535 0.429880
vt 0.734675 0.917712
vt 0.929118 0.857686
vt 0.973691 0.699421
vt 0.829021 0.934355
vt 0.979075 0.020925
vt 0.888561 0.550216
vt 0.922510 0.024843
vt 0.040006 0.909452
vt 0.979075 0.053563
vt 0.942822 0.222275
vt 0.829021 0.901717
vt 0.496497 0.735903
vt 0.020925 0.743298
vt 0.929006 0.080517
vt 0.935511 0.802214
vt 0.809885 0.853548
vt 0.951090 0.172976
vt 0.953299 0.504655
vt 0.760536 0.836770
vt 0.838128 0.466622
vt 0.809885 0.802768
vt 0.953299 0.453876
vt 0.965776 0.669660
vt 0.935511 0.861769
vt 0.020925 0.802853
vt 0.965486 0.699062
vt 0.838128 0.496026
vt 0.970855 0.021280
vt 0.929006 0.020925
vt 0.742763 0.495428
vt 0.496497 0.795495
vt 0.951090 0.223761
vt 0.971142 0.050623
vt 0.760536 0.785985
vt 0.742763 0.466083
vt 0.043406 0.757262
vt 0.407668 0.771987
vt 0.686001 0.270465
vt 0.474010 0.749857
vt 0.379445 0.776003
vt 0.714457 0.268735
vt 0.835749 0.848911
vt 0.734675 0.832121
vt 0.835749 0.798131
vt 0.714457 0.314149
vt 0.813461 0.476060
vt 0.043406 0.816817
vt 0.688692 0.310297
vt 0.813461 0.505465
vt 0.767484 0.504866
vt 0.407668 0.829482
vt 0.474010 0.809449
vt 0.734675 0.781336
vt 0.381601 0.826468
vt 0.767484 0.475521
s 0
usemtl Material
f 15/51/1 3/8/1 14/47/1
f 115/192/2 7/24/2 122/230/2
f 15/52/3 124/242/3 123/236/3
f 16/57/4 101/133/4 13/43/4
f 14/49/5 115/193/5 25/87/5
f 5/16/6 114/186/6 124/240/6
f 97/117/7 100/129/7 119/215/7
f 17/59/8 20/70/8 24/83/8
f 113/181/9 137/297/9 136/293/9
f 102/137/10 98/121/10 120/219/10
f 23/80/11 137/298/11 118/211/11
f 19/67/12 17/60/12 24/84/12
f 114/187/13 14/50/13 25/88/13
f 95/109/4 13/46/4 96/113/4
f 7/25/14 123/237/14 122/231/14
f 1/3/15 15/54/15 14/48/15
f 3/11/16 5/18/16 7/22/16
f 95/110/17 30/105/17 16/55/17
f 101/134/18 126/253/18 13/44/18
f 126/254/19 96/114/19 13/45/19
f 30/106/20 99/126/20 16/56/20
f 6/20/21 28/99/21 2/5/21
f 17/61/22 115/194/22 11/36/22
f 17/62/23 114/188/23 25/89/23
f 19/68/24 114/189/24 9/29/24
f 20/71/25 115/195/25 117/204/25
f 19/69/26 30/107/26 116/197/26
f 20/72/27 30/108/27 24/85/27
f 103/142/28 96/115/28 104/145/28
f 105/151/29 95/112/29 103/141/29
f 107/158/30 99/127/30 117/205/30
f 106/154/31 96/116/31 125/246/31
f 109/166/32 99/128/32 108/161/32
f 110/171/33 101/136/33 109/165/33
f 107/159/34 121/227/34 110/169/34
f 106/155/21 116/201/21 105/149/21
f 2/7/35 104/147/35 6/19/35
f 28/100/36 103/144/36 2/6/36
f 21/74/37 104/148/37 106/153/37
f 28/101/38 106/156/38 105/150/38
f 29/102/39 108/163/39 107/157/39
f 8/28/40 108/164/40 4/12/40
f 22/76/41 109/168/41 8/26/41
f 22/77/42 107/160/42 110/170/42
f 4/14/34 22/78/34 8/27/34
f 102/139/43 122/233/43 121/223/43
f 27/97/44 124/243/44 114/185/44
f 26/93/45 122/234/45 10/32/45
f 27/98/46 116/202/46 97/118/46
f 26/94/47 117/209/47 115/191/47
f 100/132/48 124/244/48 12/39/48
f 102/140/45 117/210/45 98/122/45
f 97/120/49 125/250/49 100/130/49
f 100/131/50 12/40/50 119/216/50
f 98/123/51 26/91/51 120/220/51
f 26/92/52 10/33/52 120/221/52
f 10/34/53 102/138/53 120/222/53
f 27/95/54 97/119/54 119/217/54
f 12/41/55 27/96/55 119/218/55
f 112/178/56 121/229/56 122/232/56
f 113/182/57 123/238/57 124/241/57
f 112/179/58 123/239/58 18/63/58
f 113/183/59 125/251/59 118/212/59
f 111/175/60 126/255/60 121/224/60
f 118/214/61 126/256/61 23/79/61
f 132/278/62 140/310/62 144/325/62
f 130/269/63 141/314/63 129/265/63
f 18/65/64 136/295/64 127/257/64
f 23/82/65 133/282/65 138/301/65
f 18/66/66 134/286/66 112/177/66
f 112/180/67 133/283/67 111/173/67
f 130/270/68 133/284/68 134/285/68
f 131/273/69 127/259/69 136/294/69
f 130/271/70 127/260/70 135/289/70
f 131/274/71 137/299/71 132/277/71
f 129/267/72 138/303/72 133/281/72
f 132/279/73 138/304/73 128/261/73
f 143/322/74 150/350/74 149/345/74
f 144/327/75 146/334/75 150/349/75
f 131/275/76 144/328/76 143/321/76
f 131/276/77 139/306/77 135/290/77
f 129/268/78 140/312/78 128/262/78
f 130/272/79 139/307/79 142/317/79
f 148/342/80 151/353/80 154/364/80
f 147/338/81 152/359/81 146/333/81
f 143/324/82 145/331/82 139/305/82
f 141/316/81 146/335/81 140/309/81
f 142/319/83 145/332/83 148/341/83
f 142/320/84 147/340/84 141/313/84
f 151/354/85 156/371/85 152/357/85
f 153/362/86 151/355/86 152/358/86
f 148/344/87 153/363/87 147/337/87
f 150/351/75 152/360/75 156/370/75
f 149/347/88 156/372/88 155/367/88
f 149/348/89 151/356/89 145/329/89
f 15/51/90 7/23/90 3/8/90
f 115/192/91 3/9/91 7/24/91
f 15/52/92 5/15/92 124/242/92
f 16/57/4 99/125/4 101/133/4
f 14/49/93 3/10/93 115/193/93
f 5/16/94 1/1/94 114/186/94
f 17/59/95 11/37/95 20/70/95
f 113/181/9 118/213/9 137/297/9
f 23/80/11 138/302/11 137/298/11
f 19/67/96 9/30/96 17/60/96
f 114/187/97 1/2/97 14/50/97
f 95/109/4 16/58/4 13/46/4
f 7/25/98 15/53/98 123/237/98
f 1/3/99 5/17/99 15/54/99
f 3/11/100 1/4/100 5/18/100
f 95/110/101 116/198/101 30/105/101
f 101/134/102 121/225/102 126/253/102
f 126/254/103 125/247/103 96/114/103
f 30/106/104 117/206/104 99/126/104
f 6/20/21 21/73/21 28/99/21
f 17/61/105 25/90/105 115/194/105
f 17/62/106 9/31/106 114/188/106
f 19/68/107 116/199/107 114/189/107
f 20/71/108 11/38/108 115/195/108
f 19/69/109 24/86/109 30/107/109
f 20/72/110 117/207/110 30/108/110
f 103/142/28 95/111/28 96/115/28
f 105/151/111 116/200/111 95/112/111
f 107/158/112 108/162/112 99/127/112
f 106/154/113 104/146/113 96/116/113
f 109/166/32 101/135/32 99/128/32
f 110/171/114 121/226/114 101/136/114
f 107/159/34 117/208/34 121/227/34
f 106/155/21 125/248/21 116/201/21
f 2/7/35 103/143/35 104/147/35
f 28/100/36 105/152/36 103/144/36
f 21/74/37 6/21/37 104/148/37
f 28/101/38 21/75/38 106/156/38
f 29/102/39 4/13/39 108/163/39
f 8/28/40 109/167/40 108/164/40
f 22/76/41 110/172/41 109/168/41
f 22/77/42 29/103/42 107/160/42
f 4/14/34 29/104/34 22/78/34
f 102/139/115 10/35/115 122/233/115
f 27/97/49 12/42/49 124/243/49
f 26/93/116 115/196/116 122/234/116
f 27/98/117 114/190/117 116/202/117
f 26/94/118 98/124/118 117/209/118
f 100/132/119 125/249/119 124/244/119
f 102/140/45 121/228/45 117/210/45
f 97/120/49 116/203/49 125/250/49
f 112/178/120 111/174/120 121/229/120
f 113/182/121 18/64/121 123/238/121
f 112/179/122 122/235/122 123/239/122
f 113/183/123 124/245/123 125/251/123
f 111/175/124 23/81/124 126/255/124
f 118/214/125 125/252/125 126/256/125
f 132/278/62 128/263/62 140/310/62
f 130/269/63 142/318/63 141/314/63
f 18/65/64 113/184/64 136/295/64
f 23/82/65 111/176/65 133/282/65
f 18/66/66 127/258/66 134/286/66
f 112/180/67 134/287/67 133/283/67
f 130/270/126 129/266/126 133/284/126
f 131/273/127 135/291/127 127/259/127
f 130/271/128 134/288/128 127/260/128
f 131/274/129 136/296/129 137/299/129
f 129/267/130 128/264/130 138/303/130
f 132/279/131 137/300/131 138/304/131
f 143/322/132 144/326/132 150/350/132
f 144/327/75 140/311/75 146/334/75
f 131/275/76 132/280/76 144/328/76
f 131/276/77 143/323/77 139/306/77
f 129/268/78 141/315/78 140/312/78
f 130/272/79 135/292/79 139/307/79
f 148/342/80 145/330/80 151/353/80
f 147/338/81 153/361/81 152/359/81
f 143/324/82 149/346/82 145/331/82
f 141/316/81 147/339/81 146/335/81
f 142/319/83 139/308/83 145/332/83
f 142/320/133 148/343/133 147/340/133
f 151/354/134 155/368/134 156/371/134
f 153/362/135 154/365/135 151/355/135
f 148/344/87 154/366/87 153/363/87
f 150/351/75 146/336/75 152/360/75
f 149/347/88 150/352/88 156/372/88
f 149/348/89 155/369/89 151/356/89
l 34 33
l 38 37
l 42 41
l 46 45
l 50 49
l 54 53
l 58 57
l 62 61
l 66 65
l 70 69
l 74 73
l 78 77
l 82 81
l 86 85
l 90 89
l 94 93
l 35 34
l 39 38
l 43 42
l 47 46
l 51 50
l 55 54
l 59 58
l 67 66
l 71 70
l 75 74
l 79 78
l 83 82
l 87 86
l 91 90
l 32 31
l 36 35
l 40 39
l 44 43
l 48 47
l 52 51
l 56 55
l 60 59
l 31 62
l 64 63
l 68 67
l 72 71
l 76 75
l 80 79
l 84 83
l 88 87
l 92 91
l 63 94
l 33 32
l 37 36
l 41 40
l 45 44
l 49 48
l 53 52
l 57 56
l 61 60
l 65 64
l 69 68
l 73 72
l 77 76
l 81 80
l 85 84
l 89 88
l 93 92
