# Blender v3.1.2 OBJ File: 'wall.blend'
# www.blender.org
mtllib wall.mtl
o Cube
v -0.212033 4.829498 5.000000
v -0.212033 0.000000 5.000000
v -0.212033 4.829498 -5.000000
v -0.212033 0.000000 -5.000000
v 0.258194 4.829498 5.000000
v 0.258194 0.000000 5.000000
v 0.258194 4.829498 -5.000000
v 0.258194 0.000000 -5.000000
v -0.212033 3.742089 5.000000
v 0.258194 3.742089 -5.000000
v -0.212033 3.742089 -5.000000
v 0.258194 3.742089 5.000000
v 0.476971 3.742089 -5.000000
v 0.476971 4.829498 -5.000000
v 0.476971 4.829498 5.000000
v 0.476971 3.742089 5.000000
v -0.454098 4.829498 5.000000
v -0.454098 4.829498 -5.000000
v -0.454098 3.742089 5.000000
v -0.454098 3.742089 -5.000000
vt 0.081025 0.576807
vt 0.013713 0.863099
vt 0.013713 0.576807
vt 0.512142 0.732465
vt 0.444831 0.576807
vt 0.512142 0.576807
vt 0.796624 0.796811
vt 0.765307 0.641152
vt 0.796624 0.641152
vt 0.175762 0.576807
vt 0.108451 0.863099
vt 0.108451 0.576807
vt 0.203189 0.576807
vt 0.237840 0.863099
vt 0.203189 0.863099
vt 0.606880 0.732465
vt 0.539569 0.576807
vt 0.606880 0.576807
vt 0.891549 0.549380
vt 0.824237 0.013713
vt 0.891549 0.013713
vt 0.300006 0.549380
vt 0.013713 0.013713
vt 0.300006 0.013713
vt 0.613726 0.549380
vt 0.327433 0.013713
vt 0.613726 0.013713
vt 0.986287 0.549380
vt 0.918975 0.013713
vt 0.986287 0.013713
vt 0.641152 0.300006
vt 0.796811 0.013713
vt 0.796811 0.300006
vt 0.824050 0.641152
vt 0.855367 0.796811
vt 0.824050 0.796811
vt 0.327344 0.576807
vt 0.358661 0.863099
vt 0.327344 0.863099
vt 0.417404 0.863099
vt 0.386087 0.576807
vt 0.417404 0.576807
vt 0.641152 0.613726
vt 0.796811 0.327433
vt 0.796811 0.613726
vt 0.299917 0.863099
vt 0.265266 0.576807
vt 0.299917 0.576807
vt 0.703229 0.641152
vt 0.737880 0.796811
vt 0.703229 0.796811
vt 0.675803 0.796811
vt 0.641152 0.641152
vt 0.675803 0.641152
vt 0.081025 0.863099
vt 0.444831 0.732465
vt 0.765307 0.796811
vt 0.175762 0.863099
vt 0.237840 0.576807
vt 0.539569 0.732465
vt 0.824237 0.549380
vt 0.013713 0.549380
vt 0.327433 0.549380
vt 0.918975 0.549380
vt 0.641152 0.013713
vt 0.855367 0.641152
vt 0.358661 0.576807
vt 0.386087 0.863099
vt 0.641152 0.327433
vt 0.265266 0.863099
vt 0.737880 0.641152
vt 0.641152 0.796811
vn 0.0000 1.0000 0.0000
vn 0.0000 0.0000 -1.0000
vn 0.0000 -1.0000 0.0000
vn 0.0000 0.0000 1.0000
vn -1.0000 0.0000 0.0000
vn 1.0000 0.0000 0.0000
usemtl Material
s off
f 5/1/1 3/2/1 1/3/1
f 3/4/2 10/5/2 11/6/2
f 7/7/2 13/8/2 10/9/2
f 2/10/3 8/11/3 6/12/3
f 9/13/3 20/14/3 11/15/3
f 5/16/4 9/17/4 12/18/4
f 12/19/4 2/20/4 6/21/4
f 9/22/5 4/23/5 2/24/5
f 10/25/6 6/26/6 8/27/6
f 11/28/2 8/29/2 4/30/2
f 14/31/6 16/32/6 13/33/6
f 12/34/4 15/35/4 5/36/4
f 5/37/1 14/38/1 7/39/1
f 10/40/3 16/41/3 12/42/3
f 17/43/5 20/44/5 19/45/5
f 3/46/1 17/47/1 1/48/1
f 11/49/2 18/50/2 3/51/2
f 1/52/4 19/53/4 9/54/4
f 5/1/1 7/55/1 3/2/1
f 3/4/2 7/56/2 10/5/2
f 7/7/2 14/57/2 13/8/2
f 2/10/3 4/58/3 8/11/3
f 9/13/3 19/59/3 20/14/3
f 5/16/4 1/60/4 9/17/4
f 12/19/4 9/61/4 2/20/4
f 9/22/5 11/62/5 4/23/5
f 10/25/6 12/63/6 6/26/6
f 11/28/2 10/64/2 8/29/2
f 14/31/6 15/65/6 16/32/6
f 12/34/4 16/66/4 15/35/4
f 5/37/1 15/67/1 14/38/1
f 10/40/3 13/68/3 16/41/3
f 17/43/5 18/69/5 20/44/5
f 3/46/1 18/70/1 17/47/1
f 11/49/2 20/71/2 18/50/2
f 1/52/4 17/72/4 19/53/4
