# Blender 3.3.1
# www.blender.org
mtllib player.mtl
o Cube
v -0.280714 0.214948 0.357472
v -0.543312 -0.128152 0.336051
v -0.169843 0.189830 -0.526658
v -0.233805 -0.098586 -0.409599
v 0.000000 -0.253597 0.528229
v 0.000000 0.226012 -0.713705
v 0.000000 -0.174096 -0.384825
v 0.000000 0.322844 0.416806
v -0.539987 0.023190 0.396820
v -0.145405 0.026087 -0.601402
v 0.000000 0.000000 0.376114
v 0.002045 0.104584 -0.762312
v -0.294061 0.168935 -0.211461
v -0.401137 -0.123885 -0.018765
v 0.000000 -0.250709 0.003845
v 0.000000 0.608894 -0.096296
v -0.427489 0.048761 -0.185564
v -0.410931 -0.000000 3.488129
v -0.410931 -0.000060 3.488129
v -0.410931 0.000000 3.488033
v -0.410931 -0.000060 3.488033
v -0.411026 -0.000000 3.488129
v -0.411026 -0.000060 3.488129
v -0.411026 0.000000 3.488033
v -0.411026 -0.000060 3.488033
v -0.015440 -0.169331 -0.388261
v -0.021487 0.287542 0.429274
v -0.020738 -0.250003 0.531580
v -0.057208 0.246640 -0.620020
v -0.072683 -0.003767 -0.726470
v -0.142628 0.027535 0.553196
v -0.094822 0.253471 -0.158516
v -0.021564 -0.244479 0.002669
v -0.012551 0.048162 1.023706
v 0.000000 0.076690 1.407683
v 0.000000 0.214199 1.407747
v 0.000000 0.403139 1.347265
v -0.012973 0.362593 0.965861
v -0.016033 0.184866 0.890817
v -0.441848 0.825481 -0.582088
v -0.350405 0.757541 -0.633302
v -0.563617 0.776744 -0.575877
v -0.512461 0.621587 -0.664710
v -0.392693 0.646467 -0.765151
v -0.461569 0.604514 -0.753949
v -0.506715 0.891956 -0.724325
v -0.388023 0.920726 -0.854884
v -0.639517 0.821499 -0.707540
v -0.628989 0.689146 -0.816041
v -0.308955 0.506550 -1.109756
v -0.418830 0.566700 -1.008838
v -0.483477 0.985587 -0.791498
v -0.391169 0.954615 -0.862752
v -1.081882 1.533438 0.397406
v -0.612033 0.856872 -0.853155
v -0.293810 0.591885 -1.096666
v -0.361873 0.643864 -1.043047
v -0.536992 0.040591 0.128307
v -0.543363 -0.120399 0.078828
v -0.760633 -0.175212 0.560833
v -0.756605 -0.253858 0.487265
v -0.757790 -0.254516 0.450948
v -0.761027 -0.172130 0.533480
v 0.280714 0.214948 0.357472
v 0.543312 -0.128152 0.336051
v 0.169843 0.189830 -0.526658
v 0.233805 -0.098586 -0.409599
v 0.539987 0.023190 0.396820
v 0.145405 0.026087 -0.601402
v -0.002045 0.104584 -0.762312
v 0.294061 0.168935 -0.211461
v 0.401137 -0.123885 -0.018765
v 0.427489 0.048761 -0.185564
v 0.410931 -0.000000 3.488129
v 0.410931 -0.000060 3.488129
v 0.410931 0.000000 3.488033
v 0.410931 -0.000060 3.488033
v 0.411026 -0.000000 3.488129
v 0.411026 -0.000060 3.488129
v 0.411026 0.000000 3.488033
v 0.411026 -0.000060 3.488033
v 0.015440 -0.169331 -0.388261
v 0.021487 0.287542 0.429274
v 0.020738 -0.250003 0.531580
v 0.057208 0.246640 -0.620020
v 0.072683 -0.003767 -0.726470
v 0.142628 0.027535 0.553196
v 0.094822 0.253471 -0.158516
v 0.021564 -0.244479 0.002669
v 0.012551 0.048162 1.023706
v 0.012973 0.362593 0.965861
v 0.016033 0.184866 0.890817
v 0.441848 0.825481 -0.582088
v 0.350405 0.757541 -0.633302
v 0.563617 0.776744 -0.575877
v 0.512461 0.621587 -0.664710
v 0.392693 0.646467 -0.765151
v 0.461569 0.604514 -0.753949
v 0.506715 0.891956 -0.724325
v 0.388023 0.920726 -0.854884
v 0.639517 0.821499 -0.707540
v 0.628989 0.689146 -0.816041
v 0.308955 0.506550 -1.109756
v 0.418830 0.566700 -1.008838
v 0.483477 0.985587 -0.791498
v 0.391169 0.954615 -0.862752
v 1.081882 1.533438 0.397406
v 0.612033 0.856872 -0.853155
v 0.293810 0.591885 -1.096666
v 0.361873 0.643864 -1.043047
v 0.536992 0.040591 0.128307
v 0.543363 -0.120399 0.078828
v 0.760633 -0.175212 0.560833
v 0.756605 -0.253858 0.487265
v 0.757790 -0.254516 0.450948
v 0.761027 -0.172130 0.533480
vn -0.2875 -0.9398 -0.1846
vn -0.8057 0.3865 -0.4488
vn -0.3304 0.5543 0.7639
vn 0.5651 0.4426 -0.6963
vn -0.9027 0.3936 -0.1736
vn 0.5955 -0.6611 -0.4563
vn -0.3739 -0.2736 0.8862
vn -0.8089 -0.3762 -0.4519
vn -0.6449 0.7628 0.0471
vn -0.9552 0.2684 0.1251
vn -0.5748 0.8163 -0.0572
vn -0.2323 -0.9714 -0.0488
vn 1.0000 -0.0000 -0.0000
vn -0.0000 -0.0000 -1.0000
vn -1.0000 -0.0000 -0.0000
vn -0.0000 -0.0000 1.0000
vn -0.0000 1.0000 -0.0000
vn -0.0000 -1.0000 -0.0000
vn -0.2266 -0.9740 -0.0076
vn -0.3136 0.9486 -0.0422
vn -0.9572 0.2798 0.0736
vn -0.4311 -0.7805 -0.4527
vn -0.4194 0.9050 -0.0710
vn 0.3007 0.2098 0.9303
vn -0.2584 -0.9479 -0.1865
vn -0.9995 0.0026 0.0315
vn -0.9995 0.0071 0.0317
vn -0.7496 0.6586 -0.0654
vn -0.9395 -0.2121 0.2690
vn -0.9744 -0.2022 0.0985
vn 0.0921 -0.9492 0.3008
vn -0.4563 -0.8896 0.0177
vn -0.7849 -0.5185 -0.3392
vn -0.7489 -0.4343 0.5005
vn 0.7472 0.4417 0.4966
vn -0.1708 -0.1420 -0.9750
vn -0.9558 -0.1878 -0.2260
vn -0.5887 0.1582 -0.7927
vn -0.8151 -0.4364 0.3810
vn -0.3310 0.8027 0.4961
vn 0.9966 0.0097 0.0816
vn 0.4710 0.7998 0.3722
vn -0.4058 0.4297 -0.8066
vn -0.3891 0.6841 -0.6170
vn 0.7158 -0.3813 0.5851
vn 0.8674 -0.1086 0.4857
vn 0.6609 0.3005 0.6877
vn -0.6498 -0.0251 -0.7597
vn -0.8292 -0.2290 -0.5099
vn -0.9975 -0.0665 0.0222
vn 0.4983 -0.8667 -0.0231
vn 0.7082 -0.3545 0.6105
vn -0.8881 0.2280 -0.3992
vn 0.2875 -0.9398 -0.1846
vn 0.8057 0.3865 -0.4488
vn 0.3304 0.5543 0.7639
vn -0.5651 0.4426 -0.6963
vn 0.9027 0.3936 -0.1736
vn -0.5955 -0.6611 -0.4563
vn 0.3739 -0.2736 0.8862
vn 0.8089 -0.3762 -0.4519
vn 0.6449 0.7628 0.0471
vn 0.9552 0.2684 0.1251
vn 0.5748 0.8163 -0.0572
vn 0.2323 -0.9714 -0.0488
vn -1.0000 -0.0000 0.0001
vn 1.0000 -0.0000 -0.0001
vn 0.2266 -0.9740 -0.0076
vn 0.3136 0.9486 -0.0422
vn 0.9572 0.2798 0.0736
vn 0.4311 -0.7805 -0.4527
vn 0.4194 0.9050 -0.0710
vn -0.3007 0.2098 0.9303
vn 0.2584 -0.9479 -0.1865
vn 0.9995 0.0026 0.0315
vn 0.9995 0.0071 0.0317
vn 0.7496 0.6586 -0.0654
vn 0.9395 -0.2121 0.2690
vn 0.9744 -0.2022 0.0985
vn -0.0921 -0.9492 0.3008
vn 0.4563 -0.8896 0.0177
vn 0.7849 -0.5185 -0.3392
vn 0.7489 -0.4343 0.5005
vn -0.7472 0.4417 0.4966
vn 0.1708 -0.1420 -0.9750
vn 0.9558 -0.1878 -0.2260
vn 0.5887 0.1582 -0.7927
vn 0.8151 -0.4364 0.3810
vn 0.3310 0.8027 0.4961
vn -0.9966 0.0097 0.0816
vn -0.4710 0.7998 0.3722
vn 0.4058 0.4297 -0.8066
vn 0.3891 0.6841 -0.6170
vn -0.7158 -0.3813 0.5851
vn -0.8674 -0.1086 0.4857
vn -0.6609 0.3005 0.6877
vn 0.6498 -0.0251 -0.7597
vn 0.8292 -0.2290 -0.5099
vn 0.9975 -0.0665 0.0222
vn -0.4983 -0.8667 -0.0231
vn -0.7082 -0.3544 0.6105
vn 0.8881 0.2280 -0.3992
vt 0.635733 0.531318
vt 0.426665 0.549461
vt 0.646202 0.701923
vt 0.368859 0.727371
vt 0.314223 0.477880
vt 0.000000 0.000000
vt 0.727589 0.660992
vt 0.342226 0.780504
vt 0.288819 0.663941
vt 0.580275 0.359521
vt 0.728561 0.516726
vt 0.496950 0.525169
vt 0.500777 0.777451
vt 0.500000 0.375000
vt 0.000000 0.000000
vt 0.487227 0.858949
vt 0.649866 0.651227
vt 0.377614 0.658626
vt 0.268122 0.590006
vt 0.734914 0.579334
vt 0.502447 0.708802
vt 0.375000 0.000000
vt 0.375000 1.000000
vt 0.125000 0.750000
vt 0.625000 0.000000
vt 0.625000 1.000000
vt 0.875000 0.750000
vt 0.375000 0.250000
vt 0.125000 0.500000
vt 0.625000 0.250000
vt 0.875000 0.500000
vt 0.375000 0.750000
vt 0.625000 0.750000
vt 0.375000 0.500000
vt 0.625000 0.500000
vt 0.344876 0.778798
vt 0.293587 0.666858
vt 0.581740 0.366007
vt 0.724145 0.516977
vt 0.451603 0.353287
vt 0.318682 0.480719
vt 0.714409 0.666066
vt 0.490287 0.821273
vt 0.499879 0.380956
vt 0.715296 0.593608
vt 0.273919 0.593639
vt 0.451603 0.353287
vt 0.318682 0.480719
vt 0.452632 0.345185
vt 0.314223 0.477880
vt 0.500000 0.375000
vt 0.580275 0.359521
vt 0.728561 0.516726
vt 0.581740 0.366007
vt 0.724145 0.516977
vt 0.499879 0.380955
vt 0.708450 0.668360
vt 0.000000 0.000000
vt 0.733504 0.654744
vt 0.646202 0.701923
vt 0.500777 0.777451
vt 0.500053 0.857336
vt 0.000000 0.000000
vt 0.500380 0.827279
vt 0.700642 0.672604
vt 0.000000 0.000000
vt 0.736483 0.653126
vt 0.628118 0.711245
vt 0.500777 0.777451
vt 0.500000 0.875000
vt 0.000000 0.000000
vt 0.500275 0.840494
vt 0.659565 0.748078
vt 0.697028 0.674568
vt 0.642332 0.783874
vt 0.000000 0.000000
vt 0.732854 0.655097
vt 0.657292 0.696163
vt 0.500665 0.791531
vt 0.500000 0.875000
vt 0.000000 0.000000
vt 0.500160 0.854917
vt 0.498784 0.573694
vt 0.422555 0.593390
vt 0.496950 0.525169
vt 0.426665 0.549461
vt 0.425441 0.562534
vt 0.497305 0.534579
vt 0.635733 0.531318
vt 0.426665 0.549461
vt 0.646202 0.701923
vt 0.368859 0.727371
vt 0.496950 0.525169
vt 0.500777 0.777451
vt 0.000000 0.000000
vt 0.487227 0.858949
vt 0.649866 0.651227
vt 0.377614 0.658626
vt 0.502447 0.708802
vt 0.375000 0.000000
vt 0.375000 1.000000
vt 0.125000 0.750000
vt 0.625000 0.000000
vt 0.625000 1.000000
vt 0.875000 0.750000
vt 0.375000 0.250000
vt 0.125000 0.500000
vt 0.625000 0.250000
vt 0.875000 0.500000
vt 0.375000 0.750000
vt 0.625000 0.750000
vt 0.375000 0.500000
vt 0.625000 0.500000
vt 0.344876 0.778798
vt 0.293587 0.666858
vt 0.581740 0.366007
vt 0.724145 0.516977
vt 0.451603 0.353287
vt 0.318682 0.480719
vt 0.714409 0.666066
vt 0.490287 0.821273
vt 0.499879 0.380956
vt 0.715296 0.593608
vt 0.273919 0.593639
vt 0.451603 0.353287
vt 0.318682 0.480719
vt 0.581740 0.366007
vt 0.724145 0.516977
vt 0.499879 0.380955
vt 0.708450 0.668360
vt 0.000000 0.000000
vt 0.733504 0.654744
vt 0.646202 0.701923
vt 0.500777 0.777451
vt 0.500053 0.857336
vt 0.000000 0.000000
vt 0.500380 0.827279
vt 0.700642 0.672604
vt 0.000000 0.000000
vt 0.736483 0.653126
vt 0.628118 0.711245
vt 0.500777 0.777451
vt 0.500000 0.875000
vt 0.000000 0.000000
vt 0.500275 0.840494
vt 0.659565 0.748078
vt 0.697028 0.674568
vt 0.642332 0.783874
vt 0.000000 0.000000
vt 0.732854 0.655097
vt 0.657292 0.696163
vt 0.500665 0.791531
vt 0.500000 0.875000
vt 0.000000 0.000000
vt 0.500160 0.854917
vt 0.498784 0.573694
vt 0.422555 0.593390
vt 0.496950 0.525169
vt 0.426665 0.549461
vt 0.425441 0.562534
vt 0.497305 0.534579
s 0
usemtl Material
f 33/46/1 14/18/1 4/4/1 26/37/1
f 17/21/2 13/17/2 3/3/2 10/13/2
f 31/44/3 27/38/3 1/1/3 9/12/3
f 6/6/4 12/15/4 44/63/4 41/58/4
f 32/45/5 16/20/5 6/7/5 29/42/5
f 26/36/6 30/43/6 12/16/6 7/8/6
f 28/40/7 31/44/7 9/12/7 2/2/7
f 14/18/8 17/21/8 10/13/8 4/4/8
f 9/12/9 58/83/9 63/88/9 60/85/9
f 27/39/10 8/11/10 16/20/10 32/45/10
f 9/12/11 1/1/11 13/17/11 17/21/11 58/83/11
f 28/41/12 2/2/12 59/84/12 14/18/12 33/46/12
f 18/22/13 19/25/13 21/30/13 20/28/13
f 20/28/14 21/30/14 25/35/14 24/34/14
f 24/34/15 25/35/15 23/33/15 22/32/15
f 22/32/16 23/33/16 19/26/16 18/23/16
f 20/29/17 24/34/17 22/32/17 18/24/17
f 25/35/18 21/31/18 19/27/18 23/33/18
f 5/5/13 15/19/13 11/14/13
f 15/19/13 7/9/13 8/10/13 11/14/13
f 5/5/19 28/41/19 33/46/19 15/19/19
f 1/1/20 27/39/20 32/45/20 13/17/20
f 27/38/21 31/44/21 39/56/21 38/54/21
f 4/4/22 10/13/22 30/43/22 26/36/22
f 13/17/23 32/45/23 29/42/23 3/3/23
f 3/3/24 29/42/24 40/57/24 42/60/24
f 11/14/13 8/10/13 37/52/13 36/51/13
f 15/19/25 33/46/25 26/37/25 7/9/25
f 35/49/26 36/51/26 39/56/26 34/47/26
f 36/51/27 37/52/27 38/54/27 39/56/27
f 8/11/28 27/39/28 38/55/28 37/53/28
f 31/44/29 28/40/29 34/47/29 39/56/29
f 5/5/13 11/14/13 36/51/13 35/50/13
f 28/41/30 5/5/30 35/50/30 34/48/30
f 44/62/31 45/64/31 51/72/31 50/70/31
f 45/64/32 43/61/32 49/69/32 51/72/32
f 30/43/33 10/13/33 43/61/33 45/64/33
f 10/13/34 3/3/34 42/60/34 43/61/34
f 29/42/35 6/7/35 41/59/35 40/57/35
f 12/16/36 30/43/36 45/64/36 44/62/36
f 49/69/37 48/68/37 54/78/37 55/79/37
f 50/70/38 51/72/38 57/82/38 56/80/38
f 43/61/39 42/60/39 48/68/39 49/69/39
f 42/60/40 40/57/40 46/65/40 48/68/40
f 41/58/41 44/63/41 50/71/41 47/66/41
f 40/57/42 41/59/42 47/67/42 46/65/42
f 57/82/43 52/73/43 53/75/43 56/80/43
f 55/79/44 54/78/44 52/73/44 57/82/44
f 48/68/45 46/65/45 52/74/45 54/78/45
f 47/66/46 50/71/46 56/81/46 53/76/46
f 46/65/47 47/67/47 53/77/47 52/74/47
f 51/72/48 49/69/48 55/79/48 57/82/48
f 59/84/49 58/83/49 17/21/49 14/18/49
f 61/86/50 60/85/50 63/88/50 62/87/50
f 59/84/51 2/2/51 61/86/51 62/87/51
f 2/2/52 9/12/52 60/85/52 61/86/52
f 58/83/53 59/84/53 62/87/53 63/88/53
f 89/124/54 82/115/54 67/92/54 72/98/54
f 73/99/55 69/94/55 66/91/55 71/97/55
f 87/122/56 68/93/56 64/89/56 83/116/56
f 6/6/57 94/131/57 97/136/57 70/95/57
f 88/123/58 85/120/58 6/7/58 16/20/58
f 82/114/59 7/8/59 70/96/59 86/121/59
f 84/118/60 65/90/60 68/93/60 87/122/60
f 72/98/61 67/92/61 69/94/61 73/99/61
f 68/93/62 113/158/62 116/161/62 111/156/62
f 83/117/63 88/123/63 16/20/63 8/11/63
f 68/93/64 111/156/64 73/99/64 71/97/64 64/89/64
f 84/119/65 89/124/65 72/98/65 112/157/65 65/90/65
f 74/100/66 76/106/66 77/108/66 75/103/66
f 76/106/14 80/112/14 81/113/14 77/108/14
f 80/112/67 78/110/67 79/111/67 81/113/67
f 78/110/16 74/101/16 75/104/16 79/111/16
f 76/107/17 74/102/17 78/110/17 80/112/17
f 81/113/18 79/111/18 75/105/18 77/109/18
f 5/5/68 15/19/68 89/124/68 84/119/68
f 64/89/69 71/97/69 88/123/69 83/117/69
f 83/116/70 91/127/70 92/129/70 87/122/70
f 67/92/71 82/114/71 86/121/71 69/94/71
f 71/97/72 66/91/72 85/120/72 88/123/72
f 66/91/73 95/133/73 93/130/73 85/120/73
f 15/19/74 7/9/74 82/115/74 89/124/74
f 35/49/75 90/125/75 92/129/75 36/51/75
f 36/51/76 92/129/76 91/127/76 37/52/76
f 8/11/77 37/53/77 91/128/77 83/117/77
f 87/122/78 92/129/78 90/125/78 84/118/78
f 84/119/79 90/126/79 35/50/79 5/5/79
f 97/135/80 103/143/80 104/145/80 98/137/80
f 98/137/81 104/145/81 102/142/81 96/134/81
f 86/121/82 98/137/82 96/134/82 69/94/82
f 69/94/83 96/134/83 95/133/83 66/91/83
f 85/120/84 93/130/84 94/132/84 6/7/84
f 70/96/85 97/135/85 98/137/85 86/121/85
f 102/142/86 108/152/86 107/151/86 101/141/86
f 103/143/87 109/153/87 110/155/87 104/145/87
f 96/134/88 102/142/88 101/141/88 95/133/88
f 95/133/89 101/141/89 99/138/89 93/130/89
f 94/131/90 100/139/90 103/144/90 97/136/90
f 93/130/91 99/138/91 100/140/91 94/132/91
f 110/155/92 109/153/92 106/148/92 105/146/92
f 108/152/93 110/155/93 105/146/93 107/151/93
f 101/141/94 107/151/94 105/147/94 99/138/94
f 100/139/95 106/149/95 109/154/95 103/144/95
f 99/138/96 105/147/96 106/150/96 100/140/96
f 104/145/97 110/155/97 108/152/97 102/142/97
f 112/157/98 72/98/98 73/99/98 111/156/98
f 114/159/99 115/160/99 116/161/99 113/158/99
f 112/157/100 115/160/100 114/159/100 65/90/100
f 65/90/101 114/159/101 113/158/101 68/93/101
f 111/156/102 116/161/102 115/160/102 112/157/102
