# Blender 3.3.1
# www.blender.org
mtllib player_body.mtl
o Cube
v -0.280714 0.214948 0.357472
v -0.543312 -0.128152 0.336051
v -0.169843 0.189830 -0.526658
v -0.233805 -0.098586 -0.409599
v 0.000000 -0.253597 0.528229
v 0.000000 0.226012 -0.713705
v 0.000000 -0.174096 -0.384825
v 0.000000 0.322844 0.416806
v -0.539987 0.023190 0.396820
v -0.145405 0.026087 -0.601402
v 0.000000 0.000000 0.376114
v 0.002045 0.104584 -0.762312
v -0.294061 0.168935 -0.211461
v -0.401137 -0.123885 -0.018765
v 0.000000 -0.250709 0.003845
v 0.000000 0.608894 -0.096296
v -0.427489 0.048761 -0.185564
v -0.410931 -0.000000 3.488129
v -0.410931 -0.000060 3.488129
v -0.410931 0.000000 3.488033
v -0.410931 -0.000060 3.488033
v -0.411026 -0.000000 3.488129
v -0.411026 -0.000060 3.488129
v -0.411026 0.000000 3.488033
v -0.411026 -0.000060 3.488033
v -0.015440 -0.169331 -0.388261
v -0.021487 0.287542 0.429274
v -0.020738 -0.250003 0.531580
v -0.057208 0.246640 -0.620020
v -0.072683 -0.003767 -0.726470
v -0.142628 0.027535 0.553196
v -0.094822 0.253471 -0.158516
v -0.021564 -0.244479 0.002669
v -0.012551 0.048162 1.023706
v 0.000000 0.076690 1.407683
v 0.000000 0.214199 1.407747
v 0.000000 0.403139 1.347265
v -0.012973 0.362593 0.965861
v -0.016033 0.184866 0.890817
v -0.441848 0.825481 -0.582088
v -0.350405 0.757541 -0.633302
v -0.563617 0.776744 -0.575877
v -0.512461 0.621587 -0.664710
v -0.392693 0.646467 -0.765151
v -0.461569 0.604514 -0.753949
v -0.506715 0.891956 -0.724325
v -0.388023 0.920726 -0.854884
v -0.639517 0.821499 -0.707540
v -0.628989 0.689146 -0.816041
v -0.308955 0.506550 -1.109756
v -0.418830 0.566700 -1.008838
v -0.483477 0.985587 -0.791498
v -0.391169 0.954615 -0.862752
v -1.081882 1.533438 0.397406
v -0.612033 0.856872 -0.853155
v -0.293810 0.591885 -1.096666
v -0.361873 0.643864 -1.043047
v -0.536992 0.040591 0.128307
v -0.543363 -0.120399 0.078828
v -0.760633 -0.175212 0.560833
v -0.756605 -0.253858 0.487265
v -0.757790 -0.254516 0.450948
v -0.761027 -0.172130 0.533480
v 0.280714 0.214948 0.357472
v 0.543312 -0.128152 0.336051
v 0.169843 0.189830 -0.526658
v 0.233805 -0.098586 -0.409599
v 0.539987 0.023190 0.396820
v 0.145405 0.026087 -0.601402
v -0.002045 0.104584 -0.762312
v 0.294061 0.168935 -0.211461
v 0.401137 -0.123885 -0.018765
v 0.427489 0.048761 -0.185564
v 0.410931 -0.000000 3.488129
v 0.410931 -0.000060 3.488129
v 0.410931 0.000000 3.488033
v 0.410931 -0.000060 3.488033
v 0.411026 -0.000000 3.488129
v 0.411026 -0.000060 3.488129
v 0.411026 0.000000 3.488033
v 0.411026 -0.000060 3.488033
v 0.015440 -0.169331 -0.388261
v 0.021487 0.287542 0.429274
v 0.020738 -0.250003 0.531580
v 0.057208 0.246640 -0.620020
v 0.072683 -0.003767 -0.726470
v 0.142628 0.027535 0.553196
v 0.094822 0.253471 -0.158516
v 0.021564 -0.244479 0.002669
v 0.012551 0.048162 1.023706
v 0.012973 0.362593 0.965861
v 0.016033 0.184866 0.890817
v 0.441848 0.825481 -0.582088
v 0.350405 0.757541 -0.633302
v 0.563617 0.776744 -0.575877
v 0.512461 0.621587 -0.664710
v 0.392693 0.646467 -0.765151
v 0.461569 0.604514 -0.753949
v 0.506715 0.891956 -0.724325
v 0.388023 0.920726 -0.854884
v 0.639517 0.821499 -0.707540
v 0.628989 0.689146 -0.816041
v 0.308955 0.506550 -1.109756
v 0.418830 0.566700 -1.008838
v 0.483477 0.985587 -0.791498
v 0.391169 0.954615 -0.862752
v 1.081882 1.533438 0.397406
v 0.612033 0.856872 -0.853155
v 0.293810 0.591885 -1.096666
v 0.361873 0.643864 -1.043047
v 0.536992 0.040591 0.128307
v 0.543363 -0.120399 0.078828
v 0.760633 -0.175212 0.560833
v 0.756605 -0.253858 0.487265
v 0.757790 -0.254516 0.450948
v 0.761027 -0.172130 0.533480
vn -0.2865 -0.9400 -0.1852
vn -0.6400 0.6099 -0.4674
vn -0.3062 0.5704 0.7622
vn 0.6124 0.4968 -0.6149
vn 0.3618 0.9321 0.0157
vn -0.1856 -0.8946 -0.4065
vn -0.3888 -0.2400 0.8895
vn -0.7948 -0.4801 -0.3713
vn -0.6250 0.7747 0.0963
vn -0.8401 0.5374 0.0737
vn -0.6762 0.7039 -0.2176
vn -0.2936 -0.9472 -0.1290
vn 1.0000 -0.0000 -0.0000
vn -0.0000 -0.0000 -1.0000
vn -1.0000 -0.0000 0.0002
vn -0.0000 -0.0000 1.0000
vn -0.0000 1.0000 -0.0000
vn -0.0000 -1.0000 -0.0000
vn -0.2773 -0.9608 -0.0053
vn -0.3748 0.9247 -0.0660
vn -0.9998 0.0112 0.0143
vn -0.1942 -0.7792 -0.5960
vn -0.3701 0.9252 -0.0845
vn 0.0137 0.0927 0.9956
vn -0.2633 -0.9465 -0.1866
vn -0.9995 -0.0000 0.0327
vn -0.9995 0.0042 0.0308
vn -0.5057 0.8595 -0.0742
vn -0.9427 0.2200 0.2510
vn -0.0642 -0.8530 0.5179
vn -0.2073 -0.9229 0.3243
vn -0.4661 -0.8832 0.0529
vn -0.7872 -0.5184 -0.3340
vn -0.7128 -0.3765 0.5917
vn 0.6538 0.3920 0.6473
vn -0.1094 -0.0849 -0.9904
vn -0.9834 0.0617 -0.1706
vn -0.5900 0.2237 -0.7758
vn -0.8007 -0.4166 0.4305
vn -0.3628 0.7984 0.4806
vn 0.9682 -0.0926 -0.2325
vn 0.6229 0.7783 0.0797
vn -0.3101 0.4551 -0.8347
vn -0.1558 0.5490 -0.8212
vn 0.7264 -0.4076 0.5534
vn 0.9715 0.1353 0.1945
vn 0.6652 0.3192 0.6750
vn -0.6301 0.1253 -0.7664
vn -0.5409 0.2666 -0.7977
vn -0.9968 -0.0731 0.0338
vn 0.4970 -0.8674 -0.0262
vn 0.6777 -0.4835 0.5540
vn -0.8926 0.3010 -0.3355
vn 0.2882 -0.9397 -0.1842
vn 0.6400 0.6099 -0.4674
vn 0.3612 0.5330 0.7652
vn -0.4664 0.3355 -0.8185
vn 0.9432 0.2823 -0.1751
vn 0.1856 -0.8946 -0.4065
vn 0.3888 -0.2400 0.8895
vn 0.7948 -0.4801 -0.3713
vn 0.6468 0.7615 0.0421
vn 0.8401 0.5374 0.0737
vn 0.5268 0.8482 -0.0562
vn 0.0451 -0.9985 -0.0301
vn 0.1723 -0.9850 -0.0100
vn 0.2637 0.9643 -0.0230
vn 0.8788 0.4635 0.1135
vn 0.1942 -0.7792 -0.5960
vn 0.3701 0.9252 -0.0845
vn -0.5187 0.2920 0.8035
vn 0.2633 -0.9465 -0.1866
vn 0.9995 -0.0000 0.0327
vn 0.9994 0.0105 0.0329
vn 0.8616 0.5043 -0.0569
vn 0.8765 -0.4052 0.2601
vn 0.0642 -0.8530 0.5179
vn -0.5333 -0.8192 0.2110
vn 0.4285 -0.9006 -0.0721
vn 0.7872 -0.5184 -0.3340
vn 0.7128 -0.3765 0.5917
vn -0.7966 0.4671 0.3836
vn 0.2069 -0.1757 -0.9625
vn 0.9834 0.0617 -0.1706
vn 0.5900 0.2237 -0.7758
vn 0.8287 -0.4577 0.3222
vn 0.2966 0.8062 0.5120
vn -0.9682 -0.0926 -0.2325
vn -0.6229 0.7783 0.0797
vn 0.4669 0.4104 -0.7833
vn 0.4445 0.7073 -0.5497
vn 0.2239 0.6042 0.7647
vn -0.7612 -0.2282 0.6070
vn -0.6652 0.3192 0.6750
vn 0.6301 0.1253 -0.7664
vn 0.5409 0.2666 -0.7977
vn 0.9983 -0.0584 0.0078
vn -0.4970 -0.8674 -0.0262
vn -0.7196 -0.2723 0.6387
vn 0.8791 0.1715 -0.4448
vn -0.2882 -0.9397 -0.1842
vn -0.9306 0.0277 -0.3649
vn -0.3612 0.5330 0.7652
vn 0.4664 0.3355 -0.8185
vn -0.9432 0.2823 -0.1751
vn 0.6633 -0.6037 -0.4421
vn -0.3406 -0.3439 0.8751
vn -0.8077 -0.2493 -0.5343
vn -0.6468 0.7615 0.0421
vn -0.9634 0.2342 0.1305
vn -0.5895 0.8065 0.0457
vn -0.5268 0.8482 -0.0562
vn -0.2236 -0.9746 -0.0098
vn -0.0451 -0.9985 -0.0301
vn 1.0000 -0.0000 0.0002
vn -1.0000 -0.0000 -0.0000
vn -0.1723 -0.9850 -0.0100
vn -0.2637 0.9643 -0.0230
vn -0.8788 0.4635 0.1135
vn -0.6780 -0.6990 -0.2274
vn -0.4840 0.8735 -0.0524
vn 0.5187 0.2920 0.8035
vn -0.2516 -0.9497 -0.1865
vn -0.9995 0.0044 0.0308
vn -0.9994 0.0105 0.0329
vn -0.8616 0.5043 -0.0569
vn -0.8765 -0.4052 0.2601
vn -0.9934 -0.1078 0.0405
vn 0.5333 -0.8192 0.2110
vn -0.4285 -0.9006 -0.0721
vn -0.7816 -0.5186 -0.3465
vn -0.7753 -0.4863 0.4030
vn 0.7966 0.4671 0.3836
vn -0.2069 -0.1757 -0.9625
vn -0.9459 -0.2256 -0.2333
vn -0.5830 0.0715 -0.8093
vn -0.8287 -0.4577 0.3222
vn -0.2966 0.8062 0.5120
vn 0.9751 0.0538 0.2151
vn 0.3715 0.7766 0.5088
vn -0.4669 0.4104 -0.7833
vn -0.4445 0.7073 -0.5497
vn -0.2239 0.6042 0.7647
vn 0.7612 -0.2282 0.6070
vn 0.6418 0.2294 0.7317
vn -0.6541 -0.0998 -0.7498
vn -0.8502 -0.4271 -0.3077
vn -0.9983 -0.0584 0.0078
vn 0.5072 -0.8618 -0.0009
vn 0.7196 -0.2723 0.6387
vn -0.8791 0.1715 -0.4448
vn 0.2865 -0.9400 -0.1852
vn 0.9306 0.0277 -0.3649
vn 0.3062 0.5704 0.7622
vn -0.6124 0.4968 -0.6149
vn -0.3618 0.9321 0.0157
vn -0.6633 -0.6037 -0.4421
vn 0.3406 -0.3439 0.8751
vn 0.8077 -0.2493 -0.5343
vn 0.6250 0.7747 0.0963
vn 0.9634 0.2342 0.1305
vn 0.5895 0.8065 0.0457
vn 0.6762 0.7039 -0.2176
vn 0.2236 -0.9746 -0.0098
vn 0.2936 -0.9472 -0.1290
vn 1.0000 -0.0000 -0.0002
vn 0.2773 -0.9608 -0.0053
vn 0.3748 0.9247 -0.0660
vn 0.9998 0.0112 0.0143
vn 0.6780 -0.6990 -0.2274
vn 0.4840 0.8735 -0.0524
vn -0.0137 0.0927 0.9956
vn 0.2516 -0.9497 -0.1865
vn 0.9995 0.0044 0.0308
vn 0.9995 0.0042 0.0308
vn 0.5057 0.8595 -0.0742
vn 0.9427 0.2200 0.2510
vn 0.9934 -0.1078 0.0405
vn 0.2073 -0.9229 0.3243
vn 0.4661 -0.8832 0.0529
vn 0.7816 -0.5186 -0.3465
vn 0.7753 -0.4863 0.4030
vn -0.6538 0.3920 0.6473
vn 0.1094 -0.0849 -0.9904
vn 0.9459 -0.2256 -0.2333
vn 0.5830 0.0715 -0.8093
vn 0.8007 -0.4166 0.4305
vn 0.3628 0.7984 0.4806
vn -0.9751 0.0538 0.2151
vn -0.3715 0.7766 0.5088
vn 0.3101 0.4551 -0.8347
vn 0.1558 0.5490 -0.8212
vn -0.7264 -0.4076 0.5534
vn -0.9715 0.1353 0.1945
vn -0.6418 0.2294 0.7317
vn 0.6541 -0.0998 -0.7498
vn 0.8502 -0.4271 -0.3077
vn 0.9968 -0.0731 0.0338
vn -0.5072 -0.8618 -0.0009
vn -0.6777 -0.4835 0.5540
vn 0.8926 0.3010 -0.3355
vt 0.635733 0.531318
vt 0.426665 0.549461
vt 0.646202 0.701923
vt 0.368859 0.727371
vt 0.314223 0.477880
vt 0.000000 0.000000
vt 0.727589 0.660992
vt 0.342226 0.780504
vt 0.288819 0.663941
vt 0.580275 0.359521
vt 0.728561 0.516726
vt 0.496950 0.525169
vt 0.500777 0.777451
vt 0.500000 0.375000
vt 0.000000 0.000000
vt 0.487227 0.858949
vt 0.649866 0.651227
vt 0.377614 0.658626
vt 0.268122 0.590006
vt 0.734914 0.579334
vt 0.502447 0.708802
vt 0.375000 0.000000
vt 0.375000 1.000000
vt 0.125000 0.750000
vt 0.625000 0.000000
vt 0.625000 1.000000
vt 0.875000 0.750000
vt 0.375000 0.250000
vt 0.125000 0.500000
vt 0.625000 0.250000
vt 0.875000 0.500000
vt 0.375000 0.750000
vt 0.625000 0.750000
vt 0.375000 0.500000
vt 0.625000 0.500000
vt 0.344876 0.778798
vt 0.293587 0.666858
vt 0.581740 0.366007
vt 0.724145 0.516977
vt 0.318682 0.480719
vt 0.451603 0.353287
vt 0.714409 0.666066
vt 0.490287 0.821273
vt 0.499879 0.380956
vt 0.715296 0.593608
vt 0.273919 0.593639
vt 0.451603 0.353287
vt 0.318682 0.480719
vt 0.452632 0.345185
vt 0.314223 0.477880
vt 0.500000 0.375000
vt 0.580275 0.359521
vt 0.728561 0.516726
vt 0.581740 0.366007
vt 0.724145 0.516977
vt 0.499879 0.380955
vt 0.708450 0.668360
vt 0.000000 0.000000
vt 0.733504 0.654744
vt 0.646202 0.701923
vt 0.500777 0.777451
vt 0.500053 0.857336
vt 0.000000 0.000000
vt 0.500380 0.827279
vt 0.700642 0.672604
vt 0.000000 0.000000
vt 0.736483 0.653126
vt 0.628118 0.711245
vt 0.500777 0.777451
vt 0.500000 0.875000
vt 0.000000 0.000000
vt 0.500275 0.840494
vt 0.659565 0.748078
vt 0.697028 0.674568
vt 0.000000 0.000000
vt 0.642332 0.783874
vt 0.732854 0.655097
vt 0.657292 0.696163
vt 0.500665 0.791531
vt 0.500000 0.875000
vt 0.000000 0.000000
vt 0.500160 0.854917
vt 0.498784 0.573694
vt 0.422555 0.593390
vt 0.496950 0.525169
vt 0.426665 0.549461
vt 0.425441 0.562534
vt 0.497305 0.534579
vt 0.635733 0.531318
vt 0.426665 0.549461
vt 0.646202 0.701923
vt 0.368859 0.727371
vt 0.496950 0.525169
vt 0.500777 0.777451
vt 0.000000 0.000000
vt 0.487227 0.858949
vt 0.649866 0.651227
vt 0.377614 0.658626
vt 0.502447 0.708802
vt 0.375000 0.000000
vt 0.375000 1.000000
vt 0.125000 0.750000
vt 0.625000 0.000000
vt 0.625000 1.000000
vt 0.875000 0.750000
vt 0.125000 0.500000
vt 0.375000 0.250000
vt 0.625000 0.250000
vt 0.875000 0.500000
vt 0.375000 0.750000
vt 0.625000 0.750000
vt 0.375000 0.500000
vt 0.625000 0.500000
vt 0.344876 0.778798
vt 0.293587 0.666858
vt 0.724145 0.516977
vt 0.581740 0.366007
vt 0.451603 0.353287
vt 0.318682 0.480719
vt 0.714409 0.666066
vt 0.490287 0.821273
vt 0.499879 0.380956
vt 0.715296 0.593608
vt 0.273919 0.593639
vt 0.451603 0.353287
vt 0.318682 0.480719
vt 0.581740 0.366007
vt 0.724145 0.516977
vt 0.499879 0.380955
vt 0.708450 0.668360
vt 0.000000 0.000000
vt 0.733504 0.654744
vt 0.646202 0.701923
vt 0.500777 0.777451
vt 0.500053 0.857336
vt 0.000000 0.000000
vt 0.500380 0.827279
vt 0.700642 0.672604
vt 0.000000 0.000000
vt 0.736483 0.653126
vt 0.628118 0.711245
vt 0.500777 0.777451
vt 0.500000 0.875000
vt 0.000000 0.000000
vt 0.500275 0.840494
vt 0.659565 0.748078
vt 0.697028 0.674568
vt 0.642332 0.783874
vt 0.000000 0.000000
vt 0.732854 0.655097
vt 0.657292 0.696163
vt 0.500665 0.791531
vt 0.500000 0.875000
vt 0.000000 0.000000
vt 0.500160 0.854917
vt 0.498784 0.573694
vt 0.422555 0.593390
vt 0.496950 0.525169
vt 0.426665 0.549461
vt 0.425441 0.562534
vt 0.497305 0.534579
s 0
usemtl Material
f 33/46/1 4/4/1 26/37/1
f 13/17/2 10/13/2 17/21/2
f 31/44/3 1/1/3 9/12/3
f 6/6/4 44/63/4 41/58/4
f 32/45/5 6/7/5 29/42/5
f 30/43/6 7/8/6 26/36/6
f 31/44/7 2/2/7 28/41/7
f 17/21/8 4/4/8 14/18/8
f 9/12/9 63/88/9 60/85/9
f 8/11/10 32/45/10 27/39/10
f 13/17/11 17/21/11 58/83/11
f 2/2/12 14/18/12 33/46/12
f 18/22/13 21/30/13 20/28/13
f 21/30/14 24/34/14 20/28/14
f 25/35/15 22/32/15 24/34/15
f 23/33/16 18/23/16 22/32/16
f 24/34/17 18/24/17 20/29/17
f 21/31/18 23/33/18 25/35/18
f 5/5/13 15/19/13 11/14/13
f 15/19/13 8/10/13 11/14/13
f 5/5/19 33/46/19 15/19/19
f 1/1/20 32/45/20 13/17/20
f 27/38/21 39/56/21 38/54/21
f 10/13/22 26/36/22 4/4/22
f 32/45/23 3/3/23 13/17/23
f 3/3/24 40/57/24 42/60/24
f 8/10/13 36/51/13 11/14/13
f 33/46/25 7/9/25 15/19/25
f 36/51/26 34/47/26 35/49/26
f 36/51/27 38/54/27 39/56/27
f 8/11/28 38/55/28 37/53/28
f 31/44/29 34/47/29 39/56/29
f 5/5/13 36/51/13 35/50/13
f 5/5/30 34/48/30 28/40/30
f 44/62/31 51/72/31 50/70/31
f 45/64/32 49/69/32 51/72/32
f 10/13/33 45/64/33 30/43/33
f 3/3/34 43/61/34 10/13/34
f 29/42/35 41/59/35 40/57/35
f 12/16/36 45/64/36 44/62/36
f 48/68/37 55/79/37 49/69/37
f 51/72/38 56/80/38 50/70/38
f 43/61/39 48/68/39 49/69/39
f 42/60/40 46/65/40 48/68/40
f 44/63/41 47/66/41 41/58/41
f 41/59/42 46/65/42 40/57/42
f 57/82/43 53/76/43 56/80/43
f 55/79/44 52/73/44 57/82/44
f 48/68/45 52/74/45 54/78/45
f 47/66/46 56/81/46 53/75/46
f 47/67/47 52/74/47 46/65/47
f 49/69/48 57/82/48 51/72/48
f 58/83/49 14/18/49 59/84/49
f 61/86/50 63/88/50 62/87/50
f 2/2/51 62/87/51 59/84/51
f 2/2/52 60/85/52 61/86/52
f 58/83/53 62/87/53 63/88/53
f 89/124/54 67/92/54 72/98/54
f 69/94/55 71/97/55 73/99/55
f 87/122/56 64/89/56 83/117/56
f 6/6/57 97/136/57 70/95/57
f 88/123/58 6/7/58 16/20/58
f 7/8/59 86/121/59 82/114/59
f 65/90/60 87/122/60 84/118/60
f 67/92/61 73/99/61 72/98/61
f 68/93/62 116/161/62 111/156/62
f 88/123/63 8/11/63 83/116/63
f 111/156/64 71/97/64 64/89/64
f 72/98/65 112/157/65 65/90/65
f 74/100/15 77/108/15 75/103/15
f 80/112/14 77/108/14 76/107/14
f 78/110/13 81/113/13 80/112/13
f 74/101/16 79/111/16 78/110/16
f 74/102/17 80/112/17 76/106/17
f 79/111/18 77/109/18 81/113/18
f 5/5/66 89/124/66 84/119/66
f 64/89/67 88/123/67 83/116/67
f 83/117/68 92/129/68 87/122/68
f 82/114/69 69/94/69 67/92/69
f 66/91/70 88/123/70 71/97/70
f 66/91/71 93/130/71 85/120/71
f 7/9/72 89/124/72 15/19/72
f 90/125/73 36/51/73 35/49/73
f 36/51/74 91/127/74 37/52/74
f 8/11/75 91/128/75 83/116/75
f 87/122/76 90/125/76 84/118/76
f 90/126/77 5/5/77 84/119/77
f 97/135/78 104/145/78 98/137/78
f 98/137/79 102/142/79 96/134/79
f 98/137/80 69/94/80 86/121/80
f 96/134/81 66/91/81 69/94/81
f 85/120/82 94/132/82 6/7/82
f 70/96/83 98/137/83 86/121/83
f 108/152/84 101/141/84 102/142/84
f 109/153/85 104/145/85 103/143/85
f 96/134/86 101/141/86 95/133/86
f 95/133/87 99/138/87 93/130/87
f 100/139/88 97/136/88 94/131/88
f 99/138/89 94/132/89 93/130/89
f 110/155/90 106/148/90 105/146/90
f 108/152/91 105/146/91 107/151/91
f 101/141/92 105/147/92 99/138/92
f 100/139/93 109/154/93 103/144/93
f 105/147/94 100/140/94 99/138/94
f 110/155/95 102/142/95 104/145/95
f 72/98/96 111/156/96 112/157/96
f 114/159/97 116/161/97 113/158/97
f 115/160/98 65/90/98 112/157/98
f 65/90/99 113/158/99 68/93/99
f 111/156/100 115/160/100 112/157/100
f 33/46/101 14/18/101 4/4/101
f 13/17/102 3/3/102 10/13/102
f 31/44/103 27/38/103 1/1/103
f 6/6/104 12/15/104 44/63/104
f 32/45/105 16/20/105 6/7/105
f 30/43/106 12/16/106 7/8/106
f 31/44/107 9/12/107 2/2/107
f 17/21/108 10/13/108 4/4/108
f 9/12/109 58/83/109 63/88/109
f 8/11/110 16/20/110 32/45/110
f 58/83/111 9/12/111 1/1/111
f 1/1/112 13/17/112 58/83/112
f 33/46/113 28/40/113 2/2/113
f 2/2/114 59/84/114 14/18/114
f 18/22/115 19/25/115 21/30/115
f 21/30/14 25/35/14 24/34/14
f 25/35/116 23/33/116 22/32/116
f 23/33/16 19/26/16 18/23/16
f 24/34/17 22/32/17 18/24/17
f 21/31/18 19/27/18 23/33/18
f 15/19/13 7/9/13 8/10/13
f 5/5/117 28/40/117 33/46/117
f 1/1/118 27/39/118 32/45/118
f 27/38/119 31/44/119 39/56/119
f 10/13/120 30/43/120 26/36/120
f 32/45/121 29/42/121 3/3/121
f 3/3/122 29/42/122 40/57/122
f 8/10/13 37/52/13 36/51/13
f 33/46/123 26/37/123 7/9/123
f 36/51/124 39/56/124 34/47/124
f 36/51/125 37/52/125 38/54/125
f 8/11/126 27/39/126 38/55/126
f 31/44/127 28/41/127 34/47/127
f 5/5/13 11/14/13 36/51/13
f 5/5/128 35/50/128 34/48/128
f 44/62/129 45/64/129 51/72/129
f 45/64/130 43/61/130 49/69/130
f 10/13/131 43/61/131 45/64/131
f 3/3/132 42/60/132 43/61/132
f 29/42/133 6/7/133 41/59/133
f 12/16/134 30/43/134 45/64/134
f 48/68/135 54/78/135 55/79/135
f 51/72/136 57/82/136 56/80/136
f 43/61/137 42/60/137 48/68/137
f 42/60/138 40/57/138 46/65/138
f 44/63/139 50/71/139 47/66/139
f 41/59/140 47/67/140 46/65/140
f 57/82/141 52/73/141 53/76/141
f 55/79/142 54/78/142 52/73/142
f 48/68/143 46/65/143 52/74/143
f 47/66/144 50/71/144 56/81/144
f 47/67/145 53/77/145 52/74/145
f 49/69/146 55/79/146 57/82/146
f 58/83/147 17/21/147 14/18/147
f 61/86/148 60/85/148 63/88/148
f 2/2/149 61/86/149 62/87/149
f 2/2/150 9/12/150 60/85/150
f 58/83/151 59/84/151 62/87/151
f 89/124/152 82/115/152 67/92/152
f 69/94/153 66/91/153 71/97/153
f 87/122/154 68/93/154 64/89/154
f 6/6/155 94/131/155 97/136/155
f 88/123/156 85/120/156 6/7/156
f 7/8/157 70/96/157 86/121/157
f 65/90/158 68/93/158 87/122/158
f 67/92/159 69/94/159 73/99/159
f 68/93/160 113/158/160 116/161/160
f 88/123/161 16/20/161 8/11/161
f 64/89/162 68/93/162 111/156/162
f 111/156/163 73/99/163 71/97/163
f 65/90/164 84/119/164 89/124/164
f 89/124/165 72/98/165 65/90/165
f 74/100/116 76/107/116 77/108/116
f 80/112/14 81/113/14 77/108/14
f 78/110/166 79/111/166 81/113/166
f 74/101/16 75/104/16 79/111/16
f 74/102/17 78/110/17 80/112/17
f 79/111/18 75/105/18 77/109/18
f 5/5/167 15/19/167 89/124/167
f 64/89/168 71/97/168 88/123/168
f 83/117/169 91/127/169 92/129/169
f 82/114/170 86/121/170 69/94/170
f 66/91/171 85/120/171 88/123/171
f 66/91/172 95/133/172 93/130/172
f 7/9/173 82/115/173 89/124/173
f 90/125/174 92/129/174 36/51/174
f 36/51/175 92/129/175 91/127/175
f 8/11/176 37/53/176 91/128/176
f 87/122/177 92/129/177 90/125/177
f 90/126/178 35/50/178 5/5/178
f 97/135/179 103/143/179 104/145/179
f 98/137/180 104/145/180 102/142/180
f 98/137/181 96/134/181 69/94/181
f 96/134/182 95/133/182 66/91/182
f 85/120/183 93/130/183 94/132/183
f 70/96/184 97/135/184 98/137/184
f 108/152/185 107/151/185 101/141/185
f 109/153/186 110/155/186 104/145/186
f 96/134/187 102/142/187 101/141/187
f 95/133/188 101/141/188 99/138/188
f 100/139/189 103/144/189 97/136/189
f 99/138/190 100/140/190 94/132/190
f 110/155/191 109/153/191 106/148/191
f 108/152/192 110/155/192 105/146/192
f 101/141/193 107/151/193 105/147/193
f 100/139/194 106/149/194 109/154/194
f 105/147/195 106/150/195 100/140/195
f 110/155/196 108/152/196 102/142/196
f 72/98/197 73/99/197 111/156/197
f 114/159/198 115/160/198 116/161/198
f 115/160/199 114/159/199 65/90/199
f 65/90/200 114/159/200 113/158/200
f 111/156/201 116/161/201 115/160/201
